SplineFontDB: 3.0
FontName: LinLibertineOZI
FullName: Linux Libertine O Semibold Italic
FamilyName: Linux Libertine O
Weight: Semibold
Copyright: Linux Libertine by Philipp H. Poll,\nOpen Font under Terms of following Free Software Licenses:\nGPL (General Public License) with font-exception and OFL (Open Font License).\nCreated with FontForge (http://fontforge.sf.net)\nSept 2003, 2004, 2005, 2006, 2007, 2008, 2009, 2010, 2011,2012
UComments: "2003-8-29: Created.+AAoA-2004-7-25: v(1.0) release candidate+AAoA-2005-12-28: v(1.1.0) stable+AAoA-2006-01-01: v(2.0.0) stable+AAoA-2006-09-05: v(2.2.0) stable" 
Version: 5.1.2
ItalicAngle: -11.5
UnderlinePosition: -98
UnderlineWidth: 40
Ascent: 754
Descent: 246
LayerCount: 2
Layer: 0 0 "Back"  1
Layer: 1 0 "Fore"  0
XUID: [1021 326 89955977 9462563]
FSType: 0
OS2Version: 3
OS2_WeightWidthSlopeOnly: 0
OS2_UseTypoMetrics: 0
CreationTime: 1162161130
PfmFamily: 17
TTFWeight: 600
TTFWidth: 5
LineGap: 0
VLineGap: 0
Panose: 2 0 5 3 0 0 0 0 0 0
OS2TypoAscent: 894
OS2TypoAOffset: 0
OS2TypoDescent: -246
OS2TypoDOffset: 0
OS2TypoLinegap: 0
OS2WinAscent: 894
OS2WinAOffset: 0
OS2WinDescent: 246
OS2WinDOffset: 0
HheadAscent: 894
HheadAOffset: 0
HheadDescent: -246
HheadDOffset: 0
OS2SubXSize: -9344
OS2SubYSize: 14930
OS2SubXOff: 14988
OS2SubYOff: 250
OS2SupXSize: 51
OS2SupYSize: 23
OS2SupXOff: 14973
OS2SupYOff: 5435
OS2StrikeYSize: 14934
OS2StrikeYPos: 5435
OS2FamilyClass: 261
OS2Vendor: 'PfEd'
Lookup: 258 0 0 "'kern' Horizontales Kerning in Latin lookup 1"  {"'kern' Horizontales Kerning in Latin lookup 1"  } ['kern' ('latn' <'dflt' > ) ]
MarkAttachClasses: 1
DEI: 91125
LangName: 1033 "" "" "Semibold Italic" "" "" "" "" "" "Philipp H. Poll" "Philipp H. Poll" "" "http://www.linuxlibertine.org" "http://www.linuxlibertine.org" "GPL - General Public License AND OFL - Open Font License" "http://www.fsf.org/licenses/gpl.html AND http://scripts.sil.org/OFL" 
Encoding: UnicodeFull
UnicodeInterp: none
NameList: Adobe Glyph List
BeginPrivate: 6

StartChar: u1D468
Encoding: 119912 119912 0
Width: 719
GlyphClass: 2
Flags: W
TopAccentHorizontal: 494
HStem: -2 34<15 39 212 225 450 469 692 710> 241 47<316 470> 638 20G<485.5 502.25>
DStem2: 123.714 94.5 178 73 0.515426 0.856934<-11.1755 217.337 273.608 499.697> 525 627 429 494 0.197523 -0.980298<111.417 321.457 369.309 566.075>
LayerCount: 2
Fore
SplineSet
316 288 m 2
 470 288 l 1
 454 371 446 409 429 494 c 1
 391 429 314 300 314 300 c 2
 309.8 292.9 309.8 288 316 288 c 2
633 91 m 2
 638.7 62.6 644.5 40.8 692 34 c 2
 706 32 l 2
 710 31.4 716 29 716 23 c 1
 712 0 l 1
 710 -2 l 1
 710 -2 673 0 634 0 c 0
 598 0 450 -2 450 -2 c 1
 448 0 l 1
 451 23 l 2
 451.8 29.5 453 31.3 458 32 c 2
 469 34 l 2
 493.4 38.4 515.8 47.9 511 73 c 2
 479 241 l 1
 290 241 l 2
 282 241 277.3 237.4 271 227 c 2
 178 73 l 2
 165 51 187.6 38.4 212 34 c 2
 223 32 l 2
 227.9 31.3 230 29 230 23 c 2
 227 0 l 1
 225 -2 l 1
 225 -2 137 0 101 0 c 0
 62 0 15 -2 15 -2 c 1
 13 0 l 1
 15 23 l 2
 15.5 29.1 21 31.4 25 32 c 2
 39 34 l 2
 86.5 40.8 108.8 69.7 123.7 94.5 c 2
 444 627 l 2
 458.2 650.6 480 658 491 658 c 0
 513.5 658 520.8 648 525 627 c 2
 633 91 l 2
EndSplineSet
EndChar

StartChar: u1D469
Encoding: 119913 119913 1
Width: 593
GlyphClass: 2
Flags: W
TopAccentHorizontal: 407
HStem: 0 40<225.893 369.155> 0 33<6.34499 85.4562> 334 42<278 412.422> 604 42<317.369 448.729> 612 35<116.056 185.196>
VStem: 468 120.7<133.012 290.279> 476 114.8<443.918 580.464>
DStem2: 90.7719 -2 209.503 -2 0.199368 0.979925<95.337 365.186 407.739 577.038>
LayerCount: 2
Fore
SplineSet
311 562 m 2x32
 278 376 l 1
 332 376 l 2
 447.2 376 476 463.4 476 520.6 c 0
 476 590.8 424.7 604 385 604 c 0
 323 604 316 591 311 562 c 2x32
271 334 m 1
 227 84 l 2
 225.8 78 224.9 72.6 224.9 67.8 c 0
 224.9 49.5 236.8 40 282 40 c 0
 430.8 40 468 159.4 468 219.6 c 0xa4
 468 288 425 334 339 334 c 2
 271 334 l 1
269 645 m 0
 315 645 345 646 386 646 c 0
 552 646 590.8 582.7 590.8 521.2 c 0
 590.8 425.1 502.3 373.6 473 361 c 1
 473 359 l 1
 554.4 335.5 588.7 284.4 588.7 216.6 c 0
 588.7 110.8 514 0 293 0 c 2xb0
 156 0 l 1
 156 0 58 -1 9 -2 c 1
 4 4 3 27 10 33 c 1
 81 36 101 39 116 122 c 2
 186 523 l 2
 189.3 541.1 191 555.5 191 567 c 0
 191 608 172.9 609.7 119 612 c 1
 114 618 112 641 119 647 c 1x68
 169 646 210 645 269 645 c 0
EndSplineSet
EndChar

StartChar: u1D46A
Encoding: 119914 119914 2
Width: 637
GlyphClass: 2
Flags: W
ItalicCorrection: 57
TopAccentHorizontal: 480
HStem: -10 44<287.965 465.041> 437 21G<620.5 665> 617 41<388.47 549.152>
VStem: 82.1 126.5<138.31 373.747> 627 38<445 520.475>
LayerCount: 2
Fore
SplineSet
354 -10 m 0
 164.5 -10 82.1 112.7 82.1 250.1 c 0
 82.1 271.5 84.1 293.3 88 315 c 0
 122 512 295 658 472 658 c 0
 600 658 625 614 674 614 c 1
 668 556 665 500 665 445 c 1
 627 437 l 1
 614 532 588 617 465 617 c 0
 372 617 251 532 216 334 c 0
 211.2 306.5 208.6 278.4 208.6 251 c 0
 208.6 136.7 252.9 34 361 34 c 0
 438 34 514 66 603 153 c 1
 628 129 l 1
 547 39 455 -10 354 -10 c 0
EndSplineSet
EndChar

StartChar: u1D46B
Encoding: 119915 119915 3
Width: 688
GlyphClass: 2
Flags: W
ItalicCorrection: 45
TopAccentHorizontal: 446
HStem: 0 40<223.93 416.09> 0 33<23.6875 96.8379> 606 40<317.405 468.504> 613 33<137 193.313>
VStem: 584.5 128.5<246.749 477.591>
DStem2: 108 77 225 75 0.172766 0.984963<6.57876 512.888>
LayerCount: 2
Fore
SplineSet
225 75 m 2
 224.2 70.6 223.7 66.6 223.7 63.2 c 0
 223.7 44.3 238.5 40 302 40 c 0
 425 40 542 88 577 284 c 0
 581.8 311.9 584.5 340.5 584.5 368.5 c 0
 584.5 492.3 532.1 606 378 606 c 0
 344 606 318 603 312 571 c 2
 225 75 l 2
23 0 m 1
 21 2 l 1
 25 24 l 2
 26 30 30 33 34 33 c 2
 48 33 l 2
 86 33 103 45 108 77 c 2
 195 569 l 2
 195.9 573.9 196.4 578.4 196.4 582.4 c 0
 196.4 604.4 182.1 613 150 613 c 2
 136 613 l 2
 133 613 129 616 130 621 c 2
 134 644 l 1
 137 646 l 1
 421 646 l 2
 595.4 646 713 524.4 713 366.4 c 0
 713 347.7 711.4 328.5 708 309 c 0
 664 63 467 0 324 0 c 2
 23 0 l 1
EndSplineSet
EndChar

StartChar: u1D46C
Encoding: 119916 119916 4
Width: 538
GlyphClass: 2
Flags: W
ItalicCorrection: 69
TopAccentHorizontal: 413
HStem: 0 46<226.264 436.67> 0 33<25.6875 98.3457> 323 42<279 400.035> 427 20G<446 475> 600 46<316.596 506.506> 613 33<139 195.12>
VStem: 401 41<251 279.988> 434 41<384.319 447> 538 40<484 561.211>
DStem2: 110 77 228 75 0.172766 0.984963<2.48257 270.289 312.867 511.882>
LayerCount: 2
Fore
SplineSet
25 0 m 1
 23 2 l 1
 27 24 l 2
 28 30 32 33 36 33 c 2
 49 33 l 2
 88 33 104 45 110 77 c 2
 197 569 l 2
 197.7 573.5 198.1 577.6 198.1 581.4 c 0
 198.1 604.1 184.6 613 152 613 c 2
 138 613 l 2
 134 613 131 616 132 621 c 2
 136 644 l 1
 139 646 l 1
 587 646 l 1
 580 588 578 535 578 484 c 1
 538 475 l 1
 534 526 523 600 459 600 c 2
 334 600 l 2
 325 600 319 592 315 571 c 2
 279 365 l 1
 387 365 l 2
 411 365 421 396 434 436 c 1
 434 440 441 447 451 447 c 2
 471 447 l 1
 475 437 l 1
 470 421 458 381 452 344 c 0
 446 308 443 268 442 251 c 1
 435 242 l 1
 415 242 l 2
 405 242 400 248 401 252 c 0
 401.5 262.2 401.9 271.8 401.9 280.4 c 0
 401.9 306.1 398 323 380 323 c 2
 272 323 l 1
 228 75 l 2
 226.8 68.3 226.3 63 226.3 58.9 c 0
 226.3 49 229.6 46 236 46 c 2
 383 46 l 2
 436 46 481 105 510 179 c 1
 550 169 l 1
 531 116 510 54 494 0 c 1
 25 0 l 1
EndSplineSet
EndChar

StartChar: u1D46D
Encoding: 119917 119917 5
Width: 492
GlyphClass: 2
Flags: W
ItalicCorrection: 114
TopAccentHorizontal: 416
LayerCount: 2
Fore
SplineSet
227 77 m 2
 226.3 72.9 225.9 69 225.9 65.4 c 0
 225.9 44.6 238.8 33 272 33 c 2
 286 33 l 2
 290 33 293 30 292 24 c 2
 288 1 l 1
 285 -1 l 1
 285 -1 190 1 155 1 c 0
 118 1 24 -1 24 -1 c 1
 23 1 l 1
 27 24 l 2
 28 30 32 33 36 33 c 2
 49 33 l 2
 88 33 104 45 110 77 c 2
 197 569 l 2
 197.7 573.5 198.1 577.6 198.1 581.4 c 0
 198.1 604.1 184.6 613 152 613 c 2
 138 613 l 2
 134 613 131 616 132 621 c 2
 136 644 l 1
 139 646 l 1
 586 646 l 1
 579 588 577 535 577 484 c 1
 537 475 l 1
 533 526 522 600 458 600 c 2
 333 600 l 2
 324 600 318 592 314 571 c 2
 278 365 l 1
 386 365 l 2
 410 365 420 396 433 436 c 1
 433 440 440 447 450 447 c 2
 470 447 l 1
 474 437 l 1
 469 421 457 381 451 344 c 0
 445 308 442 268 441 251 c 1
 434 242 l 1
 414 242 l 2
 404 242 399 248 400 252 c 0
 400.5 262.2 400.9 271.8 400.9 280.4 c 0
 400.9 306.1 397 323 379 323 c 2
 271 323 l 1
 227 77 l 2
EndSplineSet
EndChar

StartChar: u1D46E
Encoding: 119918 119918 6
Width: 696
GlyphClass: 2
Flags: W
ItalicCorrection: 57
TopAccentHorizontal: 505
LayerCount: 2
Fore
SplineSet
663 229 m 2
 643 114 l 2
 640 99 643 92 649 85 c 1
 571 26 489 -10 368 -10 c 0
 186.4 -10 76.9 104.1 76.9 251.9 c 0
 76.9 270.1 78.6 288.9 82 308 c 0
 120 528 312 658 483 658 c 0
 613 658 637 614 686 614 c 1
 678 556 677 500 677 445 c 1
 638 437 l 1
 628 531 597 617 475 617 c 0
 359 617 240 498 210 327 c 0
 205.7 302.8 203.5 278.8 203.5 255.6 c 0
 203.5 134.1 263.7 34 393 34 c 0
 435 34 486 46 523 74 c 1
 551 229 l 2
 551.4 231.3 551.6 233.6 551.6 235.7 c 0
 551.6 261.7 524.1 272 489 272 c 2
 476 272 l 2
 472 272 468 275 469 281 c 2
 474 304 l 1
 476 306 l 1
 476 306 569 304 606 304 c 0
 641 304 731 306 731 306 c 1
 733 304 l 1
 729 281 l 2
 728 275 724 272 719 272 c 2
 714 272 l 2
 674 272 668 256 663 229 c 2
EndSplineSet
EndChar

StartChar: u1D46F
Encoding: 119919 119919 7
Width: 746
GlyphClass: 2
Flags: W
ItalicCorrection: 116
TopAccentHorizontal: 501
HStem: 1 32<54 117 457 520> 321 46<314 585> 613 32<371 435 773 838>
LayerCount: 2
Fore
SplineSet
629 569 m 2
 630 573 630 578 630 582 c 0
 630 604 616 613 582 613 c 2
 568 613 l 2
 563 613 560 616 561 621 c 2
 565 645 l 1
 567 646 l 1
 567 646 665 645 704 645 c 0
 739 645 840 646 840 646 c 1
 842 645 l 1
 838 621 l 2
 837 616 833 613 829 613 c 2
 814 613 l 2
 773 613 757 597 752 569 c 2
 666 77 l 2
 665 73 664 69 664 65 c 0
 664 44 677 33 712 33 c 2
 727 33 l 2
 731 33 734 30 733 24 c 2
 729 1 l 1
 727 -1 l 1
 727 -1 625 1 590 1 c 0
 551 1 454 -1 454 -1 c 1
 452 1 l 1
 456 24 l 2
 457 30 461 33 466 33 c 2
 480 33 l 2
 520 33 537 45 542 77 c 2
 585 321 l 1
 306 321 l 1
 263 77 l 2
 262 73 261 69 261 65 c 0
 261 44 274 33 310 33 c 2
 324 33 l 2
 329 33 331 30 330 24 c 2
 326 1 l 1
 324 -1 l 1
 324 -1 223 1 187 1 c 0
 148 1 51 -1 51 -1 c 1
 49 1 l 1
 53 24 l 2
 54 30 59 33 63 33 c 2
 77 33 l 2
 117 33 134 45 140 77 c 2
 226 569 l 2
 227 573 228 578 228 582 c 0
 228 604 213 613 179 613 c 2
 165 613 l 2
 161 613 158 615 158 621 c 1
 163 645 l 1
 165 646 l 1
 165 646 262 645 301 645 c 0
 336 645 438 646 438 646 c 1
 439 645 l 1
 435 621 l 2
 434 616 431 613 426 613 c 2
 412 613 l 2
 371 613 354 597 349 569 c 2
 314 367 l 1
 594 367 l 1
 629 569 l 2
EndSplineSet
EndChar

StartChar: u1D470
Encoding: 119920 119920 8
Width: 343
GlyphClass: 2
Flags: W
ItalicCorrection: 128
TopAccentHorizontal: 290
HStem: -2 35<38.345 118.872 271.405 341.655> 612 35<148.056 217.195 369.674 449.794>
DStem2: 122.772 -2 245.772 -2 0.199368 0.979925<106.473 577.038>
LayerCount: 2
Fore
SplineSet
271 122 m 2
 267.6 103.3 265.8 88.6 265.8 77 c 0
 265.8 37 285.5 35.3 339 33 c 1
 344 27 345 4 338 -2 c 1
 288 -1 247 0 188 0 c 0
 131 0 90 -1 41 -2 c 1
 36 4 35 27 42 33 c 1
 113 36 133 39 148 122 c 2
 218 523 l 2
 221.3 541.1 223 555.5 223 567 c 0
 223 608 204.9 609.7 151 612 c 1
 146 618 144 641 151 647 c 1
 201 646 242 645 301 645 c 0
 358 645 399 646 448 647 c 1
 453 641 453 618 446 612 c 1
 375 609 356 606 341 523 c 2
 271 122 l 2
EndSplineSet
EndChar

StartChar: u1D471
Encoding: 119921 119921 9
Width: 340
VWidth: 999
Flags: W
ItalicCorrection: 139
TopAccentHorizontal: 307
HStem: -196 39<76 133> 690 115<235 316>
VStem: 93 243<711 711> 146 123<-22 597>
LayerCount: 2
Fore
SplineSet
244 556 m 2
 244 560 245 563 245 567 c 0
 245 593 226 613 190 613 c 2
 172 613 l 2
 168 613 165 616 166 621 c 2
 170 645 l 1
 172 646 l 1
 172 646 281 645 320 645 c 0
 356 645 457 646 457 646 c 1
 459 645 l 1
 455 621 l 2
 454 616 450 613 445 613 c 2
 431 613 l 2
 390 613 374 597 369 569 c 2
 285 90 l 2
 265 -22 235 -88 163 -153 c 1
 132 -179 91 -196 52 -196 c 0
 14 -196 -51 -184 -51 -137 c 0
 -51 -133 -50 -130 -50 -126 c 0
 -45 -100 -21 -93 -1 -93 c 0
 31 -93 39 -115 39 -135 c 0
 39 -146 51 -158 59 -158 c 0
 94 -158 126 -107 158 68 c 1
 244 556 l 2
EndSplineSet
EndChar

StartChar: u1D472
Encoding: 119922 119922 10
Width: 693
GlyphClass: 2
Flags: W
ItalicCorrection: 117
TopAccentHorizontal: 476
HStem: -2 34<55 79 312 328 659 678> 614 33<165 181 551 574 764 787.996>
DStem2: 227 570 314 368 0.173785 0.984784<-509.175 -258.94 -183.807 32.0966> 348 385 422 378 0.772609 0.634883<17.4838 325.077>
LayerCount: 2
Fore
SplineSet
578 574 m 2
 591 584 599 610 574 612 c 2
 553 614 l 2
 548 615 546 618 546 624 c 2
 549 646 l 1
 551 648 l 1
 551 648 666 646 702 646 c 0
 741 646 788 648 788 648 c 1
 790 646 l 1
 788 624 l 2
 788 617 782 615 778 614 c 2
 764 612 l 2
 717 606 672.7 588.2 629.5 552 c 2
 422 378 l 2
 399.8 359.4 399.3 350.5 414 331 c 2
 605 78 l 2
 625.2 51.2 642.7 38.7 659 34 c 2
 666 32 l 2
 679.5 28.1 685 26 685 22 c 2
 682 0 l 1
 678 -2 l 1
 678 -2 592 0 553 0 c 1
 494 -2 l 1
 492 0 l 1
 492 21 l 2
 492 40 468.1 70.4 450.3 97 c 2
 331 276 l 2
 323 287 315 294 301 294 c 1
 263 77 l 2
 258 46 288 37 312 34 c 2
 326 32 l 2
 331 31 333 29 333 23 c 2
 330 0 l 1
 328 -2 l 1
 328 -2 227 0 191 0 c 0
 152 0 55 -2 55 -2 c 1
 53 0 l 1
 55 23 l 2
 56 29 61 31 65 32 c 2
 79 34 l 2
 116 39 134 45 140 77 c 2
 227 570 l 2
 233 604 217 607 181 612 c 2
 167 614 l 2
 163 615 160 617 160 622 c 2
 163 646 l 1
 165 647 l 1
 165 647 262 646 301 646 c 0
 336 646 438 647 438 647 c 1
 440 646 l 1
 438 622 l 2
 437 617 433 615 428 614 c 2
 414 612 l 2
 374 606 355 597 350 570 c 2
 314 368 l 1
 322 368 331 371 348 385 c 2
 578 574 l 2
EndSplineSet
EndChar

StartChar: u1D473
Encoding: 119923 119923 11
Width: 575
GlyphClass: 2
Flags: W
ItalicCorrection: 20
TopAccentHorizontal: 289
HStem: 0 46<273.41 456.949> 1 34<57 143.269> 613 32<174 233.544 372.253 446.312>
VStem: 529 46<143.62 168.217>
DStem2: 149 75 275 92 0.173444 0.984844<21.7835 514.393>
LayerCount: 2
Fore
SplineSet
236 569 m 2
 237 573 237 578 237 582 c 0
 237 604 223 613 189 613 c 2
 175 613 l 2
 170 613 168 616 168 621 c 2
 172 645 l 1
 174 646 l 1
 174 646 271 645 311 645 c 0
 346 645 447 646 447 646 c 1
 449 645 l 1
 445 621 l 2
 444 616 440 613 436 613 c 2
 421 613 l 2
 380 613 364 597 359 569 c 2
 275 92 l 2
 274 86 273 81 273 75 c 0
 273 57 280 46 292 46 c 2
 402 46 l 2
 453 46 500 102 529 175 c 1
 575 167 l 1
 525 0 l 1
 274 0 l 1
 197 1 l 2
 185 1 57 -1 57 -1 c 1
 49 8 l 1
 51 23 l 2
 53 31 67 35 83 35 c 2
 113 35 l 2
 137 35 144 43 149 75 c 2
 236 569 l 2
EndSplineSet
EndChar

StartChar: u1D474
Encoding: 119924 119924 12
Width: 837
GlyphClass: 2
Flags: W
ItalicCorrection: 67
TopAccentHorizontal: 571
HStem: -12 21G<383 395.5> -1 36<21 93.75 163.002 216 570 636.795 753.641 809> 611 36<175 226.81 801.666 881>
VStem: 643 110<35.016 164.727>
DStem2: 106 89 168 88 0.242536 0.970142<-22.7217 373.747> 335 647 255 437 0.239195 -0.970971<184.768 493.32> 453 168 420 7 0.50331 0.864106<0 352.46>
LayerCount: 2
Fore
SplineSet
644 89 m 2
 676 446 l 1
 591 300 420 7 420 7 c 2
 414 -3 404 -12 387 -12 c 0
 379 -12 364 -6 361 7 c 2
 361 7 297 266 255 437 c 1
 227 320 198 205 168 88 c 0
 167 84 167 80 166 77 c 0
 164 66 163 58 163 51 c 0
 163 41 166 35 171 35 c 2
 197 35 l 2
 211 35 228 31 226 23 c 2
 224 9 l 1
 216 -1 l 1
 216 -1 146 1 108 1 c 0
 73 1 21 -1 21 -1 c 1
 15 8 l 1
 17 23 l 2
 19 31 30 35 51 35 c 2
 77 35 l 2
 90 35 99 65 106 89 c 0
 145 244 188 417 227 572 c 0
 227 573 228 574 228 576 c 2
 229 581 l 2
 230 586 230 590 230 594 c 0
 230 606 226 611 218 611 c 2
 188 611 l 1
 167 612 160 617 160 622 c 1
 163 636 l 1
 175 647 l 1
 335 647 l 1
 453 168 l 1
 543 325 642 493 732 647 c 1
 881 647 l 1
 884 637 l 1
 882 622 l 1
 879 612 857 611 848 611 c 2
 821 611 l 2
 810 611 802 602 799 582 c 2
 797 572 l 1
 755 90 l 2
 754 82 753 73 753 65 c 0
 753 47 756 35 767 35 c 2
 792 35 l 2
 815 35 825 31 823 23 c 2
 821 8 l 1
 809 -1 l 1
 809 -1 730 1 691 1 c 0
 656 1 570 -1 570 -1 c 1
 562 8 l 1
 564 23 l 2
 566 32 582 35 598 35 c 2
 624 35 l 2
 633 35 639 57 643 77 c 0
 643 81 644 85 644 89 c 2
EndSplineSet
EndChar

StartChar: u1D475
Encoding: 119925 119925 13
Width: 742
GlyphClass: 2
Flags: W
ItalicCorrection: 130
TopAccentHorizontal: 486
HStem: 83.5 21G<601.5 631.5> 60.5 34<55 79 261 277> -554.5 36<164 210.542 628 644>
DStem2: 121.893 104.5 193.893 104.5 0.199368 -0.979925<75.9901 494.887> 317 -553.5 303 -350.5 0.533995 0.845488<141.809 561.798> 619.002 -78.5039 667 67.5 0.172029 -0.985092<0 436.773>
LayerCount: 2
Fore
SplineSet
223 547 m 1
 213 573 195.5 604.2 148 611 c 2
 134 613 l 2
 130 613.6 124.5 615.9 124 622 c 2
 122 645 l 1
 124 647 l 1
 124 647 278 646 317 646 c 1
 617 171 l 1
 619 171 l 1
 690 569 l 2
 696.1 603 679.5 605.9 644 611 c 2
 630 613 l 2
 626 613.6 623 616 623 621 c 2
 626 645 l 1
 628 646 l 1
 628 646 692 645 731 645 c 0
 766 645 850 646 850 646 c 1
 852 645 l 1
 850 621 l 2
 849 616 845 613.7 840 613 c 2
 826 611 l 2
 786.3 605.3 766.8 596.4 762 569 c 2
 667 25 l 2
 663.2 3 646 -12 617 -12 c 0
 586 -12 573 4 566 15 c 2
 303 443 l 2
 300 448 292.5 459.5 287 459.5 c 0
 281 459.5 277.6 446.9 276 438 c 2
 212 77 l 2
 206.6 46.3 237.3 37.4 261 34 c 2
 275 32 l 2
 280 31.3 282 29 282 23 c 2
 279 0 l 1
 277 -2 l 1
 277 -2 191 0 155 0 c 0
 116 0 55 -2 55 -2 c 1
 53 0 l 1
 55 23 l 2
 55.5 29.1 61 31.4 65 32 c 2
 79 34 l 2
 116.4 39.3 134.3 44.9 140 77 c 2
 223 547 l 1
EndSplineSet
EndChar

StartChar: u1D476
Encoding: 119926 119926 14
Width: 734
GlyphClass: 2
Flags: W
ItalicCorrection: 59
TopAccentHorizontal: 475
HStem: -12 41<322.971 474.511> 617 41<398.015 549.851>
VStem: 97 135<138.519 366.411> 639 134<262.049 501.191>
LayerCount: 2
Fore
SplineSet
473 617 m 0
 328 617 232 414 232 245 c 0
 232 107 303 29 402 29 c 0
 544 29 639 227 639 402 c 0
 639 544 567 617 473 617 c 0
375 -12 m 0
 213 -12 97 86 97 247 c 0
 97 442 260 658 493 658 c 0
 650 658 773 555 773 391 c 0
 773 193 619 -12 375 -12 c 0
EndSplineSet
EndChar

StartChar: u1D477
Encoding: 119927 119927 15
Width: 522
GlyphClass: 2
Flags: W
ItalicCorrection: 92
TopAccentHorizontal: 417
LayerCount: 2
Fore
SplineSet
319 604 m 1
 269 322 l 1
 283 320 302 319 316 319 c 0
 395 319 449 363 467 467 c 0
 488 589 433 613 377 613 c 0
 366 613 339 609 319 604 c 1
108 77 m 2
 195 572 l 2
 202 607 191 618 171 618 c 2
 140 618 l 2
 133 618 130 622 131 626 c 2
 134 645 l 1
 139 646 l 1
 196 646 315 654 392 654 c 0
 585 654 602 544 592 484 c 0
 577 399 503 279 314 279 c 0
 291 279 275 280 262 282 c 1
 225 77 l 2
 221 50 231 33 270 33 c 2
 284 33 l 2
 289 33 291 30 290 24 c 2
 286 1 l 1
 284 -1 l 1
 284 -1 187 1 152 1 c 0
 115 1 22 -1 22 -1 c 1
 21 1 l 1
 25 24 l 2
 26 30 30 33 34 33 c 2
 48 33 l 2
 86 33 103 45 108 77 c 2
EndSplineSet
EndChar

StartChar: u1D478
Encoding: 119928 119928 16
Width: 734
VWidth: 999
GlyphClass: 2
Flags: W
ItalicCorrection: 59
TopAccentHorizontal: 488
HStem: -219 67<468.578 585.263> -124 54<221.5 304.477> -12 41<322.971 474.511> -2 30<380.91 418.933> 617 41<398.015 549.851>
VStem: 97 135<138.519 366.411> 639 134<262.049 501.191>
LayerCount: 2
Fore
SplineSet
473 617 m 0xee
 328 617 232 414 232 245 c 0
 232 107 303 29 402 29 c 0
 544 29 639 227 639 402 c 0
 639 544 567 617 473 617 c 0xee
133.7 -130 m 0
 177.9 -86.4 242.9 -38.4 310.2 -6.4 c 1
 183 16.5 97 108.4 97 247 c 0
 97 442 260 658 493 658 c 0
 650 658 773 555 773 391 c 0
 773 196.9 625 -4 389.2 -11.8 c 1
 358.5 -23.1 318.3 -42.5 275.9 -70.4 c 1
 279.4 -70.1 282.8 -70 286 -70 c 0
 396 -70 462 -152 550 -152 c 0
 579 -152 617 -142 644 -115 c 1
 657 -137 l 1
 608 -193 561 -219 498 -219 c 0
 368 -219 322 -124 229 -124 c 0
 221.1 -124 206.4 -127.6 190.1 -137.6 c 1
 175 -151.6 160.2 -166.8 146 -183 c 1
 112 -153 l 1
 118.3 -144.7 125.6 -137.1 133.7 -130 c 0
EndSplineSet
EndChar

StartChar: u1D479
Encoding: 119929 119929 17
Width: 584
VWidth: 999
GlyphClass: 2
Flags: W
ItalicCorrection: 34
TopAccentHorizontal: 409
HStem: -6 21G<484.5 520> -1 34<23.625 96.39 227.021 284> 5 35<539.641 594> 276 46<268 341.056> 602 40<136 195.273> 613 41<319.451 452.687>
DStem2: 78.0494 -6 193.691 -6 0.199368 0.979925<126.827 315.18 359.285 617.367> 91.1135 -6 208.113 -6 0.199368 0.979925<73.2763 314.9 356.681 511.636> 453 294 346 247 0.310402 -0.950605<-3.08784 258.431>
LayerCount: 2
Fore
SplineSet
478 468 m 0
 495 567 455 613 398 613 c 0
 363 613 342 610 318 605 c 1
 268 322 l 1
 316 322 l 2
 409 322 460 368 478 468 c 0
595 482 m 0
 577 381 528 332 453 294 c 1
 517 98 l 1
 530 54 557 35 596 40 c 1
 594 5 l 1
 564 -4 527 -6 513 -6 c 0
 456 -6 420 32 403 79 c 2
 346 247 l 2
 337 272 310 276 260 276 c 1
 225 77 l 2
 220 46 232 33 270 33 c 2
 284 33 l 2
 288 33 291 30 290 24 c 2
 286 1 l 1
 284 -1 l 1
 284 -1 213 1 175 1 c 0
 141 1 22 -1 22 -1 c 1
 21 1 l 1
 25 24 l 2
 26 30 29 33 34 33 c 2
 48 33 l 2
 87 33 103 49 108 77 c 2
 193 559 l 2
 198 587 197 604 172 604 c 0
 169 604 168 604.1 166 604 c 2
 136 602 l 2
 131 602 129 605 130 609 c 2
 136 642 l 1
 157 647 288 654 400 654 c 0
 515 654 617 604 595 482 c 0
EndSplineSet
EndChar

StartChar: u1D47A
Encoding: 119930 119930 18
Width: 454
VWidth: 999
GlyphClass: 2
Flags: W
ItalicCorrection: 43
TopAccentHorizontal: 371
HStem: -10 41<156.555 289.272> 0 21G<53.5 58.5> 619 39<265.892 383.993>
VStem: 63 39<94.4261 175> 431 40<479 562.993>
LayerCount: 2
Fore
SplineSet
477 631 m 1
 472 578 471 528 471 479 c 1
 431 474 l 1
 426 540 408 619 326 619 c 0
 263 619 232 573 222 517 c 0
 211 453 278 403 315 388 c 0
 391 358 476 305 455 184 c 0
 432 51 338 -10 229 -10 c 0
 135 -10 118 5 95 5 c 0
 76 5 67 0 50 0 c 1
 57 51 59 99 63 175 c 1
 102 178 l 1
 105 87 152 31 216 31 c 0
 289 31 332 71 346 145 c 0
 356 203 336 254 282 278 c 0
 217 306 105 368 125 485 c 0
 146 605 252 658 334 658 c 0
 424 658 426 639 477 631 c 1
EndSplineSet
EndChar

StartChar: u1D47B
Encoding: 119931 119931 19
Width: 572
VWidth: 999
GlyphClass: 2
Flags: W
ItalicCorrection: 112
TopAccentHorizontal: 385
HStem: -1 34<145.625 230.33 361.021 429> 599 47<181.203 327.915 449.609 606.731>
VStem: 147 34<647.479 669> 618 40<519 587.821> 629 35<647.138 669>
DStem2: 242 77 359 77 0.17332 0.984866<-14.9426 523.079>
LayerCount: 2
Fore
SplineSet
197 646 m 2
 603 646 l 2
 624 646 627 663 629 669 c 1
 664 673 l 1
 659 624 657 572 658 519 c 1
 618 514 l 1
 613 594 602 599 549 599 c 2
 497 599 l 2
 463 599 449 590 444 557 c 2
 359 77 l 2
 354 46 366 33 404 33 c 2
 429 33 l 2
 433 33 436 30 435 24 c 2
 431 1 l 1
 429 -1 l 1
 429 -1 315 1 277 1 c 0
 243 1 145 -1 145 -1 c 1
 143 1 l 1
 147 24 l 2
 148 30 152 33 156 33 c 2
 181 33 l 2
 221 33 237 49 242 77 c 2
 327 560 l 2
 332 590 322 599 287 599 c 2
 236 599 l 2
 183 599 169 594 136 514 c 1
 99 519 l 1
 119 572 135 624 147 673 c 1
 181 669 l 1
 180 663 177 646 197 646 c 2
EndSplineSet
EndChar

StartChar: u1D47C
Encoding: 119932 119932 20
Width: 683
GlyphClass: 2
Flags: W
ItalicCorrection: 144
TopAccentHorizontal: 486
HStem: -12 48<314.741 466.302> 613 33<140 199.75 336.84 411.719 577 636.75 729.479 804.375>
VStem: 137 123<91.1095 324.078>
DStem2: 92.7473 -12 214.033 -12 0.199368 0.979925<214.143 603.872> 528.406 -12 605.947 -12 0.199368 0.979925<144.33 604.139>
LayerCount: 2
Fore
SplineSet
638 569 m 2
 639 573 640 578 640 582 c 0
 640 604 625 613 591 613 c 2
 577 613 l 2
 573 613 570 616 570 621 c 1
 575 645 l 1
 577 646 l 1
 577 646 652 645 691 645 c 0
 727 645 805 646 805 646 c 1
 807 645 l 1
 803 621 l 2
 802 616 798 613 793 613 c 2
 779 613 l 2
 738 613 722 597 717 569 c 2
 668 293 l 2
 637 115 571 -12 350 -12 c 0
 263 -12 137 21 137 175 c 0
 137 193 139 213 143 235 c 2
 201 569 l 2
 202 573 203 578 203 582 c 0
 203 604 188 613 154 613 c 2
 140 613 l 2
 136 613 133 615 133 621 c 1
 138 645 l 1
 140 646 l 1
 140 646 237 645 276 645 c 0
 312 645 413 646 413 646 c 1
 415 645 l 1
 410 621 l 2
 409 616 406 613 401 613 c 2
 387 613 l 2
 346 613 329 597 324 569 c 2
 271 268 l 2
 266 236 260 203 260 171 c 0
 260 63 344 36 379 36 c 0
 526 36 568 168 587 276 c 2
 638 569 l 2
EndSplineSet
EndChar

StartChar: u1D47D
Encoding: 119933 119933 21
Width: 610
VWidth: 999
GlyphClass: 2
Flags: W
ItalicCorrection: 135
TopAccentHorizontal: 476
LayerCount: 2
Fore
SplineSet
518 613 m 0
 514 613 511 616 512 621 c 2
 516 645 l 1
 518 646 l 1
 518 646 601 645 639 645 c 0
 673 645 724 646 724 646 c 1
 725 645 l 1
 721 621 l 2
 720 616 717 613 712 613 c 0
 658 613 650 602 621 549 c 2
 333 11 l 2
 325 -4 306 -12 296 -12 c 0
 286 -12 271 -4 269 11 c 2
 182 554 l 2
 174 600 165 613 116 613 c 0
 112 613 109 616 109 621 c 1
 114 645 l 1
 116 646 l 1
 116 646 209 645 246 645 c 0
 281 645 385 646 385 646 c 1
 386 645 l 1
 382 621 l 2
 381 616 378 613 373 613 c 0
 318.8 613 297.3 604.9 297.3 580.5 c 0
 297.3 577.9 297.5 575 298 572 c 2
 355 216 l 1
 360 185 l 1
 376 213 l 1
 563 562 l 2
 570.9 576.4 575.3 586.9 575.3 594.5 c 0
 575.3 609.1 558.8 613 518 613 c 0
EndSplineSet
EndChar

StartChar: u1D47E
Encoding: 119934 119934 22
Width: 957
VWidth: 999
GlyphClass: 2
Flags: W
ItalicCorrection: 116
TopAccentHorizontal: 590
LayerCount: 2
Fore
SplineSet
297 -12 m 0
 266 -12 255 5 250 35 c 2
 176 562 l 2
 172 587 159 613 132 613 c 2
 120 613 l 2
 113 613 109 616 109 621 c 1
 114 644 l 1
 116 646 l 1
 116 646 186 645 222 645 c 0
 271 645 358 646 358 646 c 1
 360 644 l 1
 356 622 l 2
 355 616 351 613 346 613 c 0
 309 613 291 609 297 572 c 2
 347 218 l 1
 356 146 l 1
 390 216 l 1
 501 442 l 2
 507 454 512 467 515 480 c 1
 516 489 517 498 515 508 c 2
 506 572 l 2
 503 599 488 613 451 613 c 2
 448 613 l 2
 441 613 437 616 438 621 c 2
 442 644 l 1
 444 646 l 1
 444 646 498 645 536 645 c 0
 583 645 700 646 700 646 c 1
 701 644 l 1
 697 620 l 2
 696 615 691 613 688 613 c 0
 653 613 620 611 629 554 c 1
 677 207 l 1
 685 139 l 1
 723 215 l 1
 899 569 l 2
 917 605 897 613 851 613 c 0
 847 613 844 617 845 620 c 2
 849 644 l 1
 852 646 l 1
 852 646 930 645 970 645 c 0
 1001 645 1051 646 1051 646 c 1
 1053 645 l 1
 1048 621 l 2
 1047 613 1036 613 1035 613 c 2
 1025 613 l 2
 987 613 975 601 954 560 c 2
 699 44 l 2
 679 4 661 -12 634 -12 c 0
 594 -12 585 7 581 39 c 2
 534 367 l 2
 533 376 533 380 531 380 c 0
 530 380 527 375 525 370 c 2
 359 33 l 2
 345 4 321 -12 297 -12 c 0
EndSplineSet
EndChar

StartChar: u1D47F
Encoding: 119935 119935 23
Width: 679
VWidth: 999
GlyphClass: 2
Flags: W
ItalicCorrection: 111
TopAccentHorizontal: 472
LayerCount: 2
Fore
SplineSet
132 620 m 2
 137 645 l 1
 142 646 l 1
 167 646 228 645 238 645 c 0
 243 645 363 646 393 646 c 1
 393 646 396 645 397 645 c 2
 392 620 l 2
 392 615 389 613 386 613 c 0
 337 613 330 603 344 572 c 2
 418 414 l 1
 428 396 430 397 445 412 c 0
 492 461 552 524 587 572 c 1
 612 609 580 613 558 613 c 0
 555 613 552 615 553 620 c 2
 557 645 l 1
 559 646 l 1
 580 646 664 645 674 645 c 0
 679 645 751 646 769 646 c 1
 770 645 l 1
 766 620 l 2
 765 617 765 613 756 613 c 0
 707 613 673 586 640 552 c 2
 472 383 l 2
 451 362 451 358 475 312 c 2
 585 102 l 2
 605 63 633 33 675 33 c 0
 680 33 681 29 680 25 c 2
 676 1 l 1
 675 -1 l 1
 648 0 585 1 573 1 c 0
 567 1 413 -1 413 -1 c 1
 411 1 l 1
 415 26 l 2
 416 30 419 33 422 33 c 0
 480 33 479 38 461 73 c 2
 374 246 l 1
 360 277 357 277 340 258 c 0
 288 201 234 136 189 77 c 0
 158 35 193 33 215 33 c 0
 219 33 220 29 219 25 c 2
 215 1 l 1
 212 -1 l 1
 212 -1 100 1 86 1 c 0
 82 1 5 -1 5 -1 c 1
 5 1 l 1
 9 26 l 2
 10 31 15 33 21 33 c 0
 78 33 107 65 144 104 c 2
 317 291 l 1
 337 311 337 316 323 344 c 2
 221 549 l 2
 193 605 158 613 142 613 c 0
 135 613 131 615 132 620 c 2
EndSplineSet
EndChar

StartChar: u1D480
Encoding: 119936 119936 24
Width: 592
VWidth: 999
GlyphClass: 2
Flags: W
ItalicCorrection: 134
TopAccentHorizontal: 435
LayerCount: 2
Fore
SplineSet
257 72 m 2
 293 281 l 1
 191 553 l 1
 168 610 156 613 130 613 c 2
 119 613 l 2
 113 613 108 615 109 620 c 2
 114 645 l 1
 116 646 l 1
 116 646 225 645 238 645 c 0
 243 645 347 646 347 646 c 1
 349 645 l 1
 345 621 l 2
 344 617 341 613 337 613 c 0
 288 613 277 609 291 576 c 1
 381 334 l 1
 547 576 l 2
 561 596 547 613 512 613 c 0
 507 613 507 617 508 620 c 2
 512 645 l 1
 514 646 l 1
 514 646 590 645 601 645 c 0
 610 645 704 646 704 646 c 1
 706 645 l 1
 702 621 l 2
 701 615 697 613 691 613 c 2
 671 613 l 2
 642 613 627 606 605 574 c 2
 413 293 l 1
 374 72 l 2
 368 41 382 33 420 33 c 2
 445 33 l 2
 449 33 453 30 452 24 c 2
 448 1 l 1
 445 -1 l 1
 445 -1 341 1 304 1 c 0
 269 1 160 -1 160 -1 c 1
 160 1 l 1
 164 24 l 2
 165 30 167 33 172 33 c 2
 198 33 l 2
 237 33 252 44 257 72 c 2
EndSplineSet
EndChar

StartChar: u1D481
Encoding: 119937 119937 25
Width: 598
VWidth: 999
GlyphClass: 2
Flags: W
ItalicCorrection: 102
TopAccentHorizontal: 460
LayerCount: 2
Fore
SplineSet
549 0 m 1
 37 0 l 2
 24 0 20 5 21 15 c 1
 23 22 26 30 33 38 c 2
 502 579 l 2
 510 589 521 602 504 602 c 2
 298 602 l 2
 226 602 200 555 167 486 c 1
 130 491 l 1
 145 532 168 604 181 658 c 1
 216 655 211 646 257 646 c 2
 599 646 l 1
 630 649 648 650 660 650 c 0
 679 650 681 647 680 640 c 0
 678 629 672 619 648 591 c 2
 198 72 l 2
 182 53 178 44 208 44 c 2
 422 44 l 2
 495 44 532 98 564 170 c 1
 603 165 l 1
 583 113 562 56 549 0 c 1
EndSplineSet
EndChar

StartChar: u1D482
Encoding: 119938 119938 26
Width: 540
GlyphClass: 2
Flags: W
ItalicCorrection: 37
TopAccentHorizontal: 519
HStem: -10 50<163.172 283.77> 405 39<309.182 389.21>
VStem: 78 122<53.0041 233.642>
LayerCount: 2
Fore
SplineSet
373 195 m 0
 393 248 404 315 404 331 c 0
 404 370 386 405 357 405 c 0
 277 405 200 254 200 151 c 0
 200 97 206 40 250 40 c 0
 278 40 340 112 373 195 c 0
340 39 m 0
 340 43 340 52.3 341 58 c 1
 339 59 l 1
 277 0 255.5 -10 216 -10 c 0
 111.5 -10 78 76 78 132 c 0
 78 289 239 444 354 444 c 0
 406 444 428 422 438 392 c 1
 461.1 408 479.2 425.6 495 444 c 1
 550 447 l 2
 551.8 447 552 445.8 552 443.8 c 2
 552 443.8 529.7 359.9 520.3 321 c 2
 473 125 l 2
 468.4 105.9 466 92 466 83 c 0
 466 71 470 67 475 67 c 0
 486 67 503.5 79.5 532 105 c 1
 557 82 l 1
 486 12 454 -10 402 -10 c 0
 351 -10 340 21 340 39 c 0
EndSplineSet
EndChar

StartChar: u1D483
Encoding: 119939 119939 27
Width: 517
GlyphClass: 2
Flags: W
ItalicCorrection: 45
TopAccentHorizontal: 258
HStem: -17 21G<64 101> -10 35<201.73 303.017> 393 51<291.546 397.012> 637 35<151 183> 678 20G<319.5 337.5>
VStem: 420 122<200.908 370.439>
DStem2: 85 74 196 50 0.227423 0.973796<-10.9398 340.05 378.587 545.59>
LayerCount: 2
Fore
SplineSet
420 286 m 0
 420 343 399 393 360 393 c 0
 343 393 314 391 267 358 c 1
 196 50 l 1
 209 30 226 25 243 25 c 0
 359 25 420 197 420 286 c 0
320 583 m 2
 281 417 l 1
 312 433 353 444 391 444 c 0
 490 444 542 371 542 296 c 0
 542 223 490 90 354 15 c 0
 325 -1 286 -10 242 -10 c 0
 201 -10 172 2 140 35 c 1
 127.5 16.5 106 -9 96 -17 c 1
 64 -3 l 1
 71 17 75.7 34.1 85 74 c 2
 197 557 l 2
 202 578.8 204 596 204 607 c 0
 204 629 196 635 183 635 c 2
 152 637 l 2
 148 637 147 639 147 642 c 2
 151 672 l 1
 192 675 306 688 333 698 c 1
 342 698 345 695 345 688 c 1
 345 688 335.2 647.5 320 583 c 2
EndSplineSet
EndChar

StartChar: u1D484
Encoding: 119940 119940 28
Width: 444
GlyphClass: 2
Flags: W
ItalicCorrection: 59
TopAccentHorizontal: 382
HStem: -10 51<224.165 326.716> 405 39<288.139 367.057>
VStem: 72 124<81.909 260.273> 367 116<300.612 397.112>
LayerCount: 2
Fore
SplineSet
238 -10 m 0
 138 -10 72 88 72 152 c 0
 72 318 212 444 337 444 c 0
 447 444 483 387 483 337 c 0
 483 300 436 287 421 287 c 0
 377 287 367 306 367 323 c 0
 367 342 371 340 371 370 c 0
 371 399 348 405 340 405 c 0
 274 405 196 318 196 173 c 0
 196 59 243 41 269 41 c 0
 292 41 352 70 392 116 c 1
 432 82 l 1
 384 33 330 -10 238 -10 c 0
EndSplineSet
EndChar

StartChar: u1D485
Encoding: 119941 119941 29
Width: 556
GlyphClass: 2
Flags: W
ItalicCorrection: 66
TopAccentHorizontal: 358
HStem: -10 49<144.878 280.772> 405 39<296.426 386.835> 637 35<408 440> 678 20G<576.5 594.5>
VStem: 70 123<54.5456 245.332>
DStem2: 367 180 602 688 0.228268 0.973598<-72.1107 155.24 251.771 436.677>
LayerCount: 2
Fore
SplineSet
402 332 m 0
 402 372 382 405 353 405 c 0
 262 405 193 271 193 154 c 0
 193 101 197 39 250 39 c 0
 273 39 336 107 367 180 c 1
 387 233 402 317 402 332 c 0
577 583 m 2
 470 125 l 2
 465.5 105.9 463 92 463 83 c 0
 463 71 467 67 472 67 c 0
 483 67 501 82 523 109 c 1
 554 82 l 1
 492 19 444 -10 392 -10 c 0
 341 -10 337 21 337 39 c 0
 337 43 338 55 339 60 c 1
 337 61 l 1
 284.5 2 242.3 -10 215 -10 c 0
 80 -10 70 97 70 144 c 0
 70 316 243 444 350 444 c 0
 376 444 404 437 425 425 c 1
 436 475 454 557 454 557 c 2
 458.8 578.8 461 596 461 607 c 0
 461 629 453 635 440 635 c 2
 409 637 l 2
 405 637 404 639 404 642 c 2
 408 672 l 1
 449 675 563 688 590 698 c 1
 599 698 602 695 602 688 c 1
 602 688 592.1 647.6 577 583 c 2
EndSplineSet
EndChar

StartChar: u1D486
Encoding: 119942 119942 30
Width: 474
GlyphClass: 2
Flags: W
ItalicCorrection: 21
TopAccentHorizontal: 382
HStem: -10 76<167 333.885> 400 44<278.742 408.047>
VStem: 79 126<93.3365 187.832> 364 111<297.893 397.526>
LayerCount: 2
Fore
SplineSet
364 365 m 0
 364 390 348 400 325 400 c 0
 286 400 245 364 210 224 c 1
 284 236 364 268 364 365 c 0
475 369 m 0
 475 332 465 224 205 186 c 1
 197 93 248 66 277 66 c 0
 313 66 368 75 428 139 c 1
 442 139 456 126 454 110 c 1
 397 31 316 -10 225 -10 c 0
 109 -10 79 78 79 165 c 0
 79 278 175 444 358 444 c 0
 454 444 475 405 475 369 c 0
EndSplineSet
EndChar

StartChar: u1D487
Encoding: 119943 119943 31
Width: 370
GlyphClass: 2
Flags: MW
ItalicCorrection: 140
TopAccentHorizontal: 396
HStem: -238 47<-35.5 60.2596> 387 47<107.095 177 301 412.15> 662 36<372.502 418.87>
VStem: 422 68<597.875 661.174>
DStem2: 48.6117 -238 162.842 -238 0.199368 0.979925<392.789 638.049 708.828 831.665>
LayerCount: 2
Fore
SplineSet
177 387 m 1
 129 387 l 2
 111 387 103 389 103 394 c 1
 103 394 106 407 107 412 c 0
 109 420 122 434 155 434 c 2
 186 434 l 1
 241 682 351 698 398 698 c 0
 456 698 490 667 490 622 c 0
 490 597 475 582 443 582 c 0
 415 582 390 607 388 634 c 0
 387 651 385 662 374 662 c 0
 349 662 341.7 609.3 314 490 c 2
 314 490 306 455 301 434 c 1
 388 434 l 2
 407 434 416 431 416 425 c 1
 411 403 l 2
 408 392 381 387 363 387 c 2
 290 387 l 1
 272.9 318.4 217.3 -27.5 119 -171 c 0
 91 -211 49 -238 0 -238 c 0
 -71 -238 -93 -202 -93 -185 c 0
 -93 -170 -82 -149 -49 -149 c 0
 12 -149 12 -191 26 -191 c 0
 79 -191 104 -66 121 78 c 0
 130 149 147.9 251.8 154 280 c 2
 177 387 l 1
EndSplineSet
EndChar

StartChar: u1D488
Encoding: 119944 119944 32
Width: 477
VWidth: 999
GlyphClass: 2
Flags: W
ItalicCorrection: 75
TopAccentHorizontal: 431
HStem: -238 43<125.837 329.087> 132 40<230.945 294.211> 399 40<244.469 312.263 419.767 507.58>
VStem: 7 87<-167.228 -83.5742> 104 114<188.112 354.302> 321 114<216.591 385.621> 352 95<-166.571 -81.1206>
LayerCount: 2
Fore
SplineSet
161 -23 m 1
 136 -41 94 -65 94 -113 c 0
 94 -168 128 -195 240 -195 c 0
 328 -195 352 -165 352 -127 c 0
 352 -92 338 -80 282 -54 c 0
 249 -39 179 -27 161 -23 c 1
435 291 m 0
 435 198 343 132 263 132 c 0
 235 132 195 135 179 145 c 1
 150 90.2 235.4 69.4 325 44 c 0
 406 21 447 -35 447 -100 c 0
 447 -199 336 -238 199 -238 c 0
 118 -238 7 -217 7 -136 c 0
 7 -76 89 -31 142 -2 c 1
 100 12 86 38 86 56 c 0
 86 87 111 124 154 161 c 1
 112 183 104 239 104 283 c 0
 104 363 182 439 280 439 c 0
 324.3 439 376 427 398 401 c 1
 433 433 457.7 445.5 485.5 445.5 c 0
 517.6 445.5 532.5 424.1 532.5 404.8 c 0
 532.5 384.4 513.3 369.5 494 369.5 c 0
 476.7 369.5 472 381 467 389 c 0
 464 394 461 399 452 399 c 0
 445 399 430 392 415 378 c 1
 429 359 435 318 435 291 c 0
321 291 m 0
 321 359 322 399 279 399 c 0
 242 399 218 346 218 282 c 0
 218 234 217 172 264 172 c 0
 296.2 172 321 229 321 291 c 0
EndSplineSet
EndChar

StartChar: u1D489
Encoding: 119945 119945 33
Width: 600
GlyphClass: 2
Flags: W
TopAccentHorizontal: 609
HStem: -10 76<399 510.025> 374 65<399.804 534.501> 638 34<158.201 213.116> 678 20G<321.498 349.243>
VStem: 371.1 123.6<22.6357 166.884>
DStem2: 79.1442 -10 197.173 -10 0.199368 0.979925<27.9421 284.533> 91.2358 -10 203.954 -10 0.199368 0.979925<351.253 652.415> 355.534 -10 474.703 -10 0.199368 0.979925<119.273 385.654>
LayerCount: 2
Fore
SplineSet
95.8 72 m 2
 207.8 563 l 2
 223 629.5 219.5 638 156.4 638 c 1
 153.4 647 155.3 660 161 672 c 1
 232 683.5 298.2 693.9 344.7 698 c 0
 353.7 698 359.9 694 357.9 685 c 2
 357.9 685 347.4 648.4 332.2 583 c 2
 269.5 312.2 l 1
 355.2 410.4 408.8 439 504 439 c 0
 565 439 557 353.5 540 283 c 2
 504 134 l 2
 500.3 118.8 494.7 97.4 494.7 82.7 c 0
 494.7 72.8 497.3 66 505 66 c 0
 515 66 543.5 80.5 568 100 c 1
 582 100 591.5 88 594 74 c 1
 527.5 19 478.5 -10 416 -10 c 0
 382 -10 371.1 13.3 371.1 46.2 c 0
 371.1 69.3 376.5 97.1 383 125 c 2
 418 275 l 2
 429.4 324 445 374 406 374 c 0
 384 374 332 335 283 262 c 0
 251.9 215.7 232.3 151 215.8 80.4 c 2
 213.9 72 l 2
 205.9 37.5 209.2 -10 140 -10 c 0
 88 -10 83.1 0.5 83.1 17.2 c 0
 83.1 27 91.2 51.9 95.8 72 c 2
EndSplineSet
EndChar

StartChar: u1D48A
Encoding: 119946 119946 34
Width: 326
GlyphClass: 2
Flags: W
ItalicCorrection: 27
TopAccentHorizontal: 277
HStem: 511 120<221.339 313.255>
VStem: 208 119<524.745 617.255>
LayerCount: 2
Fore
SplineSet
208 571 m 0
 208 604 234 631 267 631 c 0
 300 631 327 604 327 571 c 0
 327 538 300 511 267 511 c 0
 234 511 208 538 208 571 c 0
288.3 320.2 m 2
 243 134 l 2
 239.5 118.8 233.6 97.4 233.6 82.7 c 0
 233.6 72.8 236.3 66 244 66 c 0
 254 66 282.5 80.5 307 100 c 1
 321 100 330.5 88 333 74 c 1
 266.5 19 217.5 -10 155 -10 c 0
 121 -10 110.1 13.3 110.1 46.2 c 0
 110.1 69.3 115.4 97.1 122 125 c 2
 167 316 l 2
 173.7 344 176 357.9 176 367 c 0
 176 377 170 386 158 387 c 2
 118 390 l 1
 112 399 112.3 415 119 423 c 1
 166 429 256 436 288 436 c 0
 301.2 436 308.5 428.6 308.5 414.9 c 0
 308.5 397.8 297.8 359.2 288.3 320.2 c 2
EndSplineSet
EndChar

StartChar: u1D48B
Encoding: 119947 119947 35
Width: 349
GlyphClass: 2
Flags: W
TopAccentHorizontal: 284
HStem: -207 38<17.1499 66.2927> 390 33<132.357 175> 416 20<289 311.624> 511 120<238.339 330.255>
VStem: 225 119<524.745 617.255>
DStem2: 82.8027 -207 195.074 -207 0.199368 0.979925<192.958 584.024>
LayerCount: 2
Fore
SplineSet
184 316 m 2
 190 343.6 193 357.9 193 367 c 0
 193 377 187 386 175 387 c 2
 135 390 l 1
 129 399 129.3 415 136 423 c 1
 183 429 273 436 305 436 c 0
 318.2 436 325.5 428.6 325.5 414.9 c 0
 325.5 397.8 314.5 359.1 305.3 320.2 c 2
 285 235 l 2
 228.2 -3.8 176 -207 33 -207 c 0
 -22 -207 -80.5 -187 -80.5 -152.9 c 0
 -80.5 -119 -56.4 -113 -41 -113 c 0
 16.2 -113 11.5 -169 43 -169 c 0
 64 -169 101.5 -110 118 -34 c 0
 132.8 34.5 138 106 154 179 c 2
 184 316 l 2
225 571 m 0
 225 604 251 631 284 631 c 0
 317 631 344 604 344 571 c 0
 344 538 317 511 284 511 c 0
 251 511 225 538 225 571 c 0
EndSplineSet
EndChar

StartChar: u1D48C
Encoding: 119948 119948 36
Width: 570
GlyphClass: 2
Flags: W
ItalicCorrection: 46
TopAccentHorizontal: 445
HStem: -10 72<408.5 499.945> 234 38<247 283.487> 364 75<459.063 553.525> 638 34<158.201 213.116> 678 20G<321.498 349.243>
DStem2: 79.1442 -10 197.181 -10 0.199368 0.979925<27.9421 579.844> 306 302.664 340 270 0.748997 0.662574<3.82357 169.202>
LayerCount: 2
Fore
SplineSet
95.8 72 m 2
 207.8 563 l 2
 223 629.5 219.5 638 156.4 638 c 1
 153.4 647 155.3 660 161 672 c 1
 232 683.5 298.2 693.9 344.7 698 c 0
 353.7 698 359.9 694 357.9 685 c 2
 357.9 685 347.4 648.4 332.2 583 c 2
 260.7 274.1 l 1
 277 278.9 292.7 291.2 306 302.7 c 2
 346 337 l 1
 418 401 489 439 521 439 c 0
 569 439 596.3 417 596.3 395 c 0
 596.3 358.3 569 336 539 336 c 0
 505 336 509 364 483 364 c 0
 463 364 441 360 392 316 c 2
 340 270 l 1
 340 266 l 1
 373 257 389.3 233.4 405 202 c 0
 419 174 428 146 446 90 c 0
 453 68.2 462.9 62 482 62 c 0
 493 62 510 65 530 94 c 1
 541 94 553 85 560 77 c 1
 528 21 480 -10 429 -10 c 0
 388 -10 363 21 330.4 93 c 0
 310 138.2 299 189 281 221 c 0
 276 230 269 237.3 261.4 237.3 c 0
 258.2 237.3 255.2 237.2 252.1 236.9 c 1
 213.9 72 l 2
 205.9 37.5 209.2 -10 140 -10 c 0
 88 -10 83.1 0.5 83.1 17.2 c 0
 83.1 27 91.2 51.9 95.8 72 c 2
EndSplineSet
EndChar

StartChar: u1D48D
Encoding: 119949 119949 37
Width: 326
VWidth: 999
GlyphClass: 2
Flags: W
ItalicCorrection: 52
TopAccentHorizontal: 265
HStem: -10 76<122.999 234.025> 638 34<158.201 211.064> 678 20G<324.913 349.243>
VStem: 95.1 123.6<22.6357 164.058>
DStem2: 79.5335 -10 198.702 -10 0.199368 0.979925<119.273 652.296>
LayerCount: 2
Fore
SplineSet
207.8 563 m 2
 223.6 631.5 218.3 633 156.4 638 c 1
 153.4 647 155.3 660 161 672 c 1
 232.7 675 305 686 344.7 698 c 1
 353.7 698 359.9 694 357.9 685 c 2
 357.9 685 347.3 647.9 332.2 583 c 2
 228 134 l 2
 224.5 118.8 218.7 97.4 218.7 82.7 c 0
 218.7 72.8 221.3 66 229 66 c 0
 239.1 66 267.5 80.5 292 100 c 1
 306 100 315.5 88 318 74 c 1
 251.5 19 202.5 -10 140 -10 c 0
 106 -10 95.1 13.3 95.1 46.2 c 0
 95.1 69.3 100.6 97 107 125 c 2
 207.8 563 l 2
EndSplineSet
EndChar

StartChar: u1D48E
Encoding: 119950 119950 38
Width: 851
GlyphClass: 2
Flags: W
ItalicCorrection: 26
TopAccentHorizontal: 532
HStem: -10 76<701.32 772.275> 374 65<396.893 493.911 663.893 760.731> 390 33<105.728 149>
VStem: 164 127.5<322.089 422.866> 634.1 123.6<22.6357 166.884>
DStem2: 85.1389 -10 203.174 -10 0.199368 0.979925<27.9432 283.604 340.416 384.733> 618.534 -10 737.703 -10 0.199368 0.979925<119.273 385.654>
LayerCount: 2
Fore
SplineSet
425.3 322.1 m 0
 430.2 351.6 428.1 374 402 374 c 0
 380 374 338 335 289 262 c 0
 256.7 213.9 236.8 145.9 219.9 72 c 0
 212 37.5 215.2 -10 146 -10 c 0
 94 -10 89.1 0.5 89.1 17.2 c 0
 89.1 27 97 52 101.8 72 c 2
 158 321 l 2
 163.4 345.1 164 357.9 164 367 c 0
 164 377 161 386 149 387 c 2
 109 390 l 1
 103 399 101.3 415 108 423 c 1
 155 429 239 436 271 436 c 0
 284.2 436 291.5 428.6 291.5 414.9 c 0
 291.5 397.8 279.9 358.7 269.3 320.2 c 2
 264 301 l 1
 265 300 l 1
 357 408 401 439 500 439 c 0
 552.8 439 553.9 374.9 542.2 311.9 c 1
 627.4 410.3 671.7 439 767 439 c 0
 828 439 820 353.5 803 283 c 2
 767 134 l 2
 763.3 118.8 757.7 97.4 757.7 82.7 c 0
 757.7 72.8 760.3 66 768 66 c 0
 778 66 806.5 80.5 831 100 c 1
 845 100 854.5 88 857 74 c 1
 790.5 19 741.5 -10 679 -10 c 0
 645 -10 634.1 13.3 634.1 46.2 c 0
 634.1 69.3 639.5 97.1 646 125 c 2
 681 275 l 2
 692.4 324 708 374 669 374 c 0
 647 374 605 335 556 262 c 0
 523.7 213.9 503.8 145.9 486.9 72 c 0
 479 37.5 482.2 -10 413 -10 c 0
 361 -10 356.1 0.5 356.1 17.2 c 0
 356.1 27 364 52 368.8 72 c 2
 425 321 l 2
 425.1 321.4 425.2 321.8 425.3 322.1 c 0
EndSplineSet
EndChar

StartChar: u1D48F
Encoding: 119951 119951 39
Width: 606
GlyphClass: 2
Flags: W
TopAccentHorizontal: 404
HStem: -10 76<405 516.025> 374 65<405.282 503.731> 390 33<105.728 149>
VStem: 164 127.5<322.089 422.866> 377.1 123.6<22.6357 166.884>
DStem2: 85.1389 -10 203.174 -10 0.199368 0.979925<27.9432 283.604 340.416 384.733> 361.534 -10 480.703 -10 0.199368 0.979925<119.273 385.654>
LayerCount: 2
Fore
SplineSet
389 125 m 2
 424 275 l 2
 435.4 324 451 374 412 374 c 0
 390 374 338 335 289 262 c 0
 256.7 213.9 236.8 145.9 219.9 72 c 0
 212 37.5 215.2 -10 146 -10 c 0
 94 -10 89.1 0.5 89.1 17.2 c 0
 89.1 27 97 52 101.8 72 c 2
 158 321 l 2
 163.4 345.1 164 357.9 164 367 c 0
 164 377 161 386 149 387 c 2
 109 390 l 1
 103 399 101.3 415 108 423 c 1
 155 429 239 436 271 436 c 0
 284.2 436 291.5 428.6 291.5 414.9 c 0
 291.5 397.8 279.9 358.7 269.3 320.2 c 2
 264 301 l 1
 265 300 l 1
 357 408 411 439 510 439 c 0
 571 439 563 353.5 546 283 c 2
 510 134 l 2
 506.3 118.8 500.7 97.4 500.7 82.7 c 0
 500.7 72.8 503.3 66 511 66 c 0
 521 66 549.5 80.5 574 100 c 1
 588 100 597.5 88 600 74 c 1
 533.5 19 484.5 -10 422 -10 c 0
 388 -10 377.1 13.3 377.1 46.2 c 0
 377.1 69.3 382.5 97.1 389 125 c 2
EndSplineSet
EndChar

StartChar: u1D490
Encoding: 119952 119952 40
Width: 507
GlyphClass: 2
Flags: W
ItalicCorrection: 30
TopAccentHorizontal: 378
HStem: -10 42<230.854 321.738> 402 42<268.521 366.128>
VStem: 72 126<77.8273 270.273> 393 124<173.334 366.428>
LayerCount: 2
Fore
SplineSet
198 173 m 0
 198 50 248 32 271 32 c 0
 368 32 393 208 393 272 c 0
 393 333 379 402 323 402 c 0
 226 402 198 260 198 173 c 0
72 165 m 0
 72 285 162 444 342 444 c 0
 480 444 517 351 517 279 c 0
 517 121 383 -10 246 -10 c 0
 103 -10 72 111 72 165 c 0
EndSplineSet
EndChar

StartChar: u1D491
Encoding: 119953 119953 41
Width: 537
GlyphClass: 2
Flags: W
ItalicCorrection: 37
TopAccentHorizontal: 411
HStem: -234 33<-37.8125 29.7859 181.091 239.812> -10 42<232.329 334.595> 390 54<302.91 410.4> 450 20G<194.857 307.745>
VStem: 430 124<197.3 371.539>
DStem2: 62 -110 179.869 -106.668 0.22334 0.974741<-18.3495 139.911 193.324 390.583 440.478 535.457 573.138 573.244>
LayerCount: 2
Fore
SplineSet
430 274 m 0
 430 342.1 416 390 367 390 c 0
 342 390 312 385 289 370 c 1
 219 67 l 1
 238 43 258 32 274 32 c 0
 320.9 32 360.5 66.7 386 111 c 0
 418.1 166.8 430 237.8 430 274 c 0
62 -110 m 2
 148 271 l 1
 133 256 114 235 102 218 c 1
 66 249 l 1
 90 282 126 314 165 344 c 1
 189 449 l 1
 312 470 l 1
 302 423 l 1
 328 433 360 444 399 444 c 0
 519 444 554 394 554 290 c 0
 554 233.7 521.1 149.7 464 86 c 0
 413.5 29.7 343.3 -10 272 -10 c 0
 246 -10 223 -7 204 1 c 1
 179.9 -106.7 l 2
 175.8 -125.1 173.8 -143.4 173.8 -155 c 0
 173.8 -195 194 -198.3 237 -201 c 1
 242 -207 243 -228 236 -234 c 1
 186 -233 133.7 -232 96 -232 c 0
 65 -232 14 -233 -35 -234 c 1
 -40 -228 -41 -207 -34 -201 c 1
 26.7 -198 43.4 -192.3 62 -110 c 2
EndSplineSet
EndChar

StartChar: u1D492
Encoding: 119954 119954 42
Width: 572
GlyphClass: 2
Flags: W
TopAccentHorizontal: 378
HStem: -234 33<209.188 276.415 428.091 486.812> -10 49<211.661 293.119> 405 39<304.553 396.178>
VStem: 76 124<49.4554 234.624>
DStem2: 345 41 426.869 -106.668 0.224548 0.974463<-173.43 0 68.6845 297.387>
LayerCount: 2
Fore
SplineSet
410 332 m 0
 410 371 393 405 364 405 c 0
 275 405 200 281 200 141 c 0
 200 68.9 209.5 39 248 39 c 0
 293 39 354 120 376 183 c 0
 395 238 410 316 410 332 c 0
309 -110 m 2
 345 41 l 1
 304 4 270 -10 217 -10 c 0
 117 -10 76 61 76 130 c 0
 76 311.5 248 444 361 444 c 0
 403 444 436 432 459 408 c 1
 476.1 425.1 509.5 458 532 458 c 0
 544 458 550 449 550 435 c 0
 550 431 549.4 424.9 548 419 c 2
 426.9 -106.7 l 2
 422.7 -125 420.8 -143.4 420.8 -155 c 0
 420.8 -195 441 -198.3 484 -201 c 1
 489 -207 490 -228 483 -234 c 1
 433 -233 380.7 -232 343 -232 c 0
 312 -232 261 -233 212 -234 c 1
 207 -228 206 -207 213 -201 c 1
 273.7 -198 289.4 -192 309 -110 c 2
EndSplineSet
EndChar

StartChar: u1D493
Encoding: 119955 119955 43
Width: 444
VWidth: 999
GlyphClass: 2
Flags: W
ItalicCorrection: 78
TopAccentHorizontal: 331
HStem: -10 21G<118 174> 369 67<374.253 440.861> 390 33<102.728 146>
VStem: 164 127.5<277.711 420.971>
LayerCount: 2
Fore
SplineSet
266 285 m 1
 270 284 l 1
 314 377 380 436 440 436 c 0
 484 436 502 405 502 380 c 0
 502 348 480 317 448 317 c 0
 431 317 415.7 322.7 404.7 335 c 0
 397.6 342.9 391 369 381 369 c 0
 361.3 369 292 266 244 179 c 1
 217.9 72 l 2
 208.4 32.9 206 -10 142 -10 c 0
 94 -10 89.1 0.5 89.1 17.2 c 0
 89.1 33 97 50.5 101.8 72 c 2
 156 316 l 2
 163 344 164 357.9 164 367 c 0
 164 377 158 386 146 387 c 2
 106 390 l 1
 100 399 98.3 415 105 423 c 1
 152 429 238 436 270 436 c 0
 283.2 436 291.5 426.3 291.5 410.9 c 0
 291.5 393.8 283 359 274.3 320.2 c 2
 266 285 l 1
EndSplineSet
EndChar

StartChar: u1D494
Encoding: 119956 119956 44
Width: 417
GlyphClass: 2
Flags: HMW
ItalicCorrection: 29
TopAccentHorizontal: 466
HStem: -12 37.6<179.584 279.473> 405.8 38.2<251.071 327.822>
VStem: 45 119.1<40.5538 138.929> 126.3 109<283.325 383.982> 303.3 117<60.3785 152.976> 327.3 113<300.75 401.809>
LayerCount: 2
Fore
SplineSet
426.3 359 m 0
 429.8 326.5 403.5 307.9 389 304 c 0
 367 298 340.3 304.4 336 326 c 0
 328.9 361.6 313.1 405.8 270.2 405.8 c 0
 231 405.8 218 383.1 218 355 c 0
 218 304 266.3 273.6 292 260 c 0
 366 221 407.3 176 407.3 129 c 0
 407.3 58.4 353.1 -12 227.4 -12 c 0
 147.6 -12 65 20 65 88 c 0
 65 120 92 139 108.5 139 c 0
 139 139 156.6 115.8 172 81 c 0
 187 47 217.1 28.6 248.4 28.6 c 0
 279 28.6 303.3 40.2 303.3 78 c 0
 303.3 125 277.9 158.9 236 183 c 0
 170 221 130.5 271 130.5 314 c 0
 130.5 419.6 210.3 444 307 444 c 0
 369.5 444 421 408 426.3 359 c 0
EndSplineSet
EndChar

StartChar: u1D495
Encoding: 119957 119957 45
Width: 367
VWidth: 999
GlyphClass: 2
Flags: W
ItalicCorrection: 68
TopAccentHorizontal: 280
HStem: -10 76<146.055 241.76> 382 47<108.097 184 302 407.389>
VStem: 113.3 112.1<22.0141 169.164>
DStem2: 96.9581 -10 204.127 -10 0.199368 0.979925<118.524 401.484 471.066 578.094>
LayerCount: 2
Fore
SplineSet
123 118 m 2
 184 382 l 1
 109 382 l 2
 106 382 103 382 103 384 c 0
 103 386 107 406 108 409 c 0
 110 417 117 425 136 426 c 2
 194 429 l 1
 207 479 l 2
 216.9 517.2 216.2 551.9 251 561 c 0
 281.5 569 332 581 332 564 c 0
 332 552 316 491.8 312 474 c 2
 302 429 l 1
 411 429 l 1
 422 421 412 387 400 382 c 1
 292 382 l 1
 232 127 l 2
 228.8 113.2 225.4 96.6 225.4 84.2 c 0
 225.4 73.5 228 66 236 66 c 0
 246.1 66 280 83 306 113 c 1
 320 113 332 94 335 85 c 1
 285 30 233.5 -10 164 -10 c 0
 128.1 -10 113.3 12.7 113.3 47.1 c 0
 113.3 67.7 117.8 95.4 123 118 c 2
EndSplineSet
EndChar

StartChar: u1D496
Encoding: 119958 119958 46
Width: 561
GlyphClass: 2
Flags: HMW
ItalicCorrection: 29
TopAccentHorizontal: 395
HStem: -10 59<183.557 269.606> 367 77<160.657 265> 416 20G<437.5 563>
VStem: 108 120<49.1731 183.188> 354 125<19.4844 125.867>
DStem2: 119 141 238 153 0.247959 0.968771<-29.3913 215.427> 399 236 486 125 0.240332 0.970691<-121.826 207.996>
LayerCount: 2
Fore
SplineSet
280 315 m 2
 238 153 l 2
 232.1 130.1 228 98 228 82 c 0
 228 63 233 49 249 49 c 0
 278 49 368.9 105 399 236 c 2
 399 236 430 372 445 436 c 1
 477.3 435 529.7 435 563 436 c 1
 486 125 l 2
 481.3 105.9 479 92 479 83 c 0
 479 71 484 67 489 67 c 0
 500 67 524 84.7 545 106 c 1
 557.9 101.8 565 93 570 82 c 1
 508 19 469 -10 417 -10 c 0
 366 -10 354 21 354 39 c 0
 354 43 356.3 70.7 369.3 92 c 0
 370.3 93.3 368.2 94.1 366.3 92 c 0
 310.1 30.9 250.3 -10 200 -10 c 0
 138.3 -10 108 24 108 64 c 0
 108 82 112.2 114.3 119 141 c 2
 162 309 l 2
 166.9 328 169 342 169 351 c 0
 169 362 165 367 161 367 c 0
 149 367 129 353 107 325 c 1
 94.7 331.3 86 340.3 79 352 c 1
 148.5 424.5 187 444 239 444 c 0
 291 444 294 413 294 395 c 0
 294 378 287.9 345 280 315 c 2
EndSplineSet
EndChar

StartChar: u1D497
Encoding: 119959 119959 47
Width: 477
GlyphClass: 2
Flags: W
ItalicCorrection: 72
TopAccentHorizontal: 396
HStem: -12 21G<252.5 274> 362 82<165.908 260.5>
VStem: 440 89.5<310 414.88>
DStem2: 320.329 129.991 304 12 0.560453 0.828186<0 221.404>
LayerCount: 2
Fore
SplineSet
318.3 131 m 1
 320.3 130 l 1
 414 265 l 2
 433.1 292.5 440 303 440 317 c 0
 440 340 421.5 351 421.5 395.5 c 0
 421.5 421.5 448.5 444 479 444 c 0
 519 444 529.5 415.5 529.5 380.5 c 0
 529.5 354.5 508.2 313.8 461 244 c 2
 304 12 l 2
 294 -2.7 282 -12 266 -12 c 0
 239 -12 228.1 0 226 16 c 2
 183 341 l 2
 181 356.4 174.3 362 168 362 c 0
 154 362 130 339 117 319.5 c 1
 102.7 328.7 96.7 336.3 92 350 c 1
 142 410 175 444 236 444 c 0
 285 444 291.5 399.2 297 344 c 2
 318.3 131 l 1
EndSplineSet
EndChar

StartChar: u1D498
Encoding: 119960 119960 48
Width: 702
GlyphClass: 2
Flags: W
ItalicCorrection: 52
TopAccentHorizontal: 485
HStem: -12 21G<237 256.5 486.5 508> 221.7 159.8<399.66 464.75> 362 82<165.909 260.5>
VStem: 636 85<310.976 418.29>
DStem2: 293 344 179 341 0.0797452 -0.996815<-27.743 179.387> 307 164 390 210 0.503317 0.864102<0 97.2747> 542 130 526 12 0.508479 0.861074<0 208.181>
LayerCount: 2
Fore
SplineSet
102 350 m 1
 152 410 185 444 246 444 c 0
 295 444 300.3 400.1 303 344 c 2
 312 158.5 l 1
 314 157.5 l 1
 410 328 l 2
 420.4 346.4 442.5 381.5 460 381.5 c 0
 489.5 381.5 502.2 344.6 506 324 c 2
 506 324 532.5 181.5 544 120.5 c 1
 546 119.5 l 1
 626 265 l 2
 641.9 293.9 645 303 645 317 c 0
 645 340 626.5 351 626.5 395.5 c 0
 626.5 421.5 653.5 444 684 444 c 0
 724 444 734.5 415.5 734.5 380.5 c 0
 734.5 354.5 716 318 673 244 c 2
 536 12 l 2
 527 -3 514 -12 498 -12 c 0
 478 -12 470 -1 467 12 c 2
 420 210 l 2
 418.4 216.9 415.3 221.7 411.3 221.7 c 0
 408 221.7 404.1 218.4 400 210 c 2
 287 16 l 2
 275.5 -3.7 266 -12 247 -12 c 0
 227 -12 216.2 0.9 215 16 c 2
 189 341 l 2
 188 356 184.3 362 178 362 c 0
 164 362 140 339 127 319.5 c 1
 112.7 328.7 106.7 336.3 102 350 c 1
EndSplineSet
EndChar

StartChar: u1D499
Encoding: 119961 119961 49
Width: 517
GlyphClass: 2
Flags: W
ItalicCorrection: 70
TopAccentHorizontal: 352
HStem: -10.4 75.9<80.9751 164.622 413.276 442.061> 350.5 88.5<157.268 271.5 433.724 538.768>
DStem2: 335.5 299.062 349.5 233.463 0.598145 0.801388<-298.247 -171.002 0 112.758>
LayerCount: 2
Fore
SplineSet
201.7 340 m 2
 196.7 351.9 180.5 352.5 167.5 352.5 c 0
 154.2 352.5 124 339.5 112 333.8 c 1
 104 341.5 96.4 361.6 95 372.5 c 1
 131 393.5 222 439 257 439 c 0
 282 439 284.1 420.7 300.2 368.3 c 2
 325.5 286.1 l 1
 333.5 297.6 360.5 332.7 360.5 332.7 c 2
 401.2 386.9 439.2 437.5 498.5 437.5 c 0
 532.1 437.5 567.8 421.9 567.8 389.5 c 0
 567.8 359.5 547.8 330.7 521.6 330.7 c 0
 506.9 330.7 485.9 339.1 476.4 345.1 c 0
 468 349.9 455.4 353.5 451.2 353.5 c 0
 447 353.5 436.2 350.9 425 335.7 c 2
 339.5 220.5 l 1
 395.2 85.3 l 2
 400.5 72.5 411.2 65.7 424 65.7 c 0
 439 65.7 463.5 68.5 487.5 92.5 c 1
 512 67.2 l 1
 451.2 0 406 -9.8 364 -9.9 c 0
 322.5 -10 311.7 32.1 295.2 82.3 c 2
 276.2 140.3 l 1
 258.4 113.8 230.4 76.3 216.5 60.5 c 0
 162.2 -1 145.5 -10.4 97.2 -10.4 c 0
 64.7 -10.4 26.5 8.7 26.5 43.5 c 0
 26.5 72.3 37.7 92.5 74.5 92.5 c 0
 111.5 92.5 134.8 65.5 149.5 65.5 c 0
 155.8 65.5 168.5 73 182.5 91.5 c 0
 206.8 123.6 239.2 167.5 258.7 202.5 c 1
 240.7 255.3 201.7 340 201.7 340 c 2
EndSplineSet
EndChar

StartChar: u1D49A
Encoding: 119962 119962 50
Width: 510
GlyphClass: 2
Flags: W
ItalicCorrection: 59
TopAccentHorizontal: 402
HStem: -232 79<52.1474 154.49> 362 82<163.908 256>
VStem: 460 89.5<313.721 414.88>
DStem2: 236 -68 299 -67 0.52424 0.85157<-102.465 72.4521 188.218 444.729>
LayerCount: 2
Fore
SplineSet
295 344 m 2
 338 90 l 1
 340 89 l 1
 441 265 l 2
 458.2 295 460 303 460 317 c 0
 460 340 441.5 351 441.5 395.5 c 0
 441.5 421.5 468.5 444 499 444 c 0
 539 444 549.5 415.5 549.5 380.5 c 0
 549.5 354.5 534 319.8 488 244 c 2
 299 -67 l 2
 238.4 -166.7 144 -232 83 -232 c 0
 60 -232 15 -223 15 -188 c 0
 15 -170 21 -138 80 -138 c 0
 102 -138 116 -153 135 -153 c 0
 153 -153 195 -136 236 -68 c 1
 262 -27 l 1
 238 101 181 341 181 341 c 2
 177.7 356.1 172.3 362 166 362 c 0
 152 362 128 339 115 319.5 c 1
 100.7 328.7 94.7 336.3 90 350 c 1
 140 410 173 444 234 444 c 0
 278 444 285.8 398.4 295 344 c 2
EndSplineSet
EndChar

StartChar: u1D49B
Encoding: 119963 119963 51
Width: 457
GlyphClass: 2
Flags: W
ItalicCorrection: 52
TopAccentHorizontal: 360
HStem: -15 21G<90.1352 111.5> -10 85<261.271 376.543> 352 63<296.852 408.5> 360 84<160.959 331.581>
VStem: 94 32<316.594 327.336>
LayerCount: 2
Fore
SplineSet
441 457 m 1
 489 436 l 1
 443.2 367.3 252.6 178.3 193 111 c 1
 222 110 246 104 259 98 c 1
 283 84 313 75 326 75 c 0
 343 75 388.5 75 426 139 c 1
 461 124 l 1
 415 15 355 -10 300 -10 c 0
 266 -10 229 -2 204 13 c 0
 173 32 150 40 140 40 c 0
 137 40 123 24 100 -15 c 1
 80.3 -12 51.3 1.4 46 12 c 1
 49 21 89 70 112 96 c 0
 172 166 281 270 358 358 c 1
 351 359 316 352 307 352 c 0
 277 352 263 360 214 360 c 0
 185 360 137 336 126 308 c 1
 94 319 l 1
 111 378 164 444 210 444 c 0
 246 444 318 434 367 421 c 0
 381 417 390 415 395 415 c 0
 401 415 411 423 441 457 c 1
EndSplineSet
EndChar

StartChar: u1D71C
Encoding: 120604 120604 52
Width: 719
VWidth: 999
GlyphClass: 2
Flags: W
TopAccentHorizontal: 494
HStem: 1 34<11 76 162 231 414 486 632 695> 241 46<254 413> 648 10<353 375>
LayerCount: 2
Fore
SplineSet
316 288 m 2
 470 288 l 1
 454 371 446 409 429 494 c 1
 391 429 314 300 314 300 c 2
 309.8 292.9 309.8 288 316 288 c 2
633 91 m 2
 638.7 62.6 644.5 40.8 692 34 c 2
 706 32 l 2
 710 31.4 716 29 716 23 c 1
 712 0 l 1
 710 -2 l 1
 710 -2 673 0 634 0 c 0
 598 0 450 -2 450 -2 c 1
 448 0 l 1
 451 23 l 2
 451.8 29.5 453 31.3 458 32 c 2
 469 34 l 2
 493.4 38.4 515.8 47.9 511 73 c 2
 479 241 l 1
 290 241 l 2
 282 241 277.3 237.4 271 227 c 2
 178 73 l 2
 165 51 187.6 38.4 212 34 c 2
 223 32 l 2
 228 31.3 230 29 230 23 c 2
 227 0 l 1
 225 -2 l 1
 225 -2 137 0 101 0 c 0
 62 0 15 -2 15 -2 c 1
 13 0 l 1
 15 23 l 2
 15.5 29.1 21 31.4 25 32 c 2
 39 34 l 2
 86.5 40.8 108.8 69.7 123.7 94.5 c 2
 444 627 l 2
 458.2 650.6 480 658 491 658 c 0
 513.5 658 520.8 648 525 627 c 2
 633 91 l 2
EndSplineSet
EndChar

StartChar: u1D71D
Encoding: 120605 120605 53
Width: 621
VWidth: 999
GlyphClass: 2
Flags: W
TopAccentHorizontal: 407
HStem: -1 36<27 108> -1 41<227 476> 334 42<238 309> 604 42<231 367> 611 34<33 175>
VStem: 115 123<37 334 376 602> 420 120<424 580> 466 132<110 290>
LayerCount: 2
Fore
SplineSet
323 562 m 2
 290 376 l 1
 344 376 l 2
 459.2 376 488 463.4 488 520.6 c 0
 488 590.8 436.7 604 397 604 c 0
 335 604 328 591 323 562 c 2
283 334 m 1
 239 84 l 2
 237.8 78 236.9 72.6 236.9 67.8 c 0
 236.9 49.5 248.8 40 294 40 c 0
 442.8 40 480 159.4 480 219.6 c 0
 480 288 437 334 351 334 c 2
 283 334 l 1
281 645 m 0
 327 645 357 646 398 646 c 0
 564 646 602.8 582.7 602.8 521.2 c 0
 602.8 425.1 514.3 373.6 485 361 c 1
 485 359 l 1
 566.4 335.5 600.7 284.4 600.7 216.6 c 0
 600.7 110.8 526 0 305 0 c 2
 168 0 l 1
 168 0 70 -1 21 -2 c 1
 16 4 15 27 22 33 c 1
 93 36 113 39 128 122 c 2
 198 523 l 2
 201.3 541.1 203 555.5 203 567 c 0
 203 608 184.9 609.7 131 612 c 1
 126 618 124 641 131 647 c 1
 181 646 222 645 281 645 c 0
EndSplineSet
EndChar

StartChar: u1D71E
Encoding: 120606 120606 54
Width: 541
GlyphClass: 2
Flags: W
ItalicCorrection: 74
TopAccentHorizontal: 374
HStem: 1 32<4 78 218 304> 599 46<231 424> 611 34<14 155>
VStem: 94 123<41 593> 449 52<476 514>
LayerCount: 2
Fore
SplineSet
230 76 m 2
 229 72 229 68 229 65 c 0
 229 44 242 33 277 33 c 2
 304 33 l 2
 309 33 311 30 310 24 c 2
 306 1 l 1
 304 -1 l 1
 304 -1 190 1 154 1 c 0
 115 1 6 -1 6 -1 c 1
 4 1 l 1
 8 24 l 2
 9 30 14 33 18 33 c 2
 44 33 l 2
 84 33 102 45 107 76 c 2
 194 570 l 2
 196 579 197 585 197 590 c 0
 197 606 190 611 172 611 c 2
 143 611 l 2
 126 611 114 615 115 623 c 2
 118 638 l 1
 129 647 l 1
 129 647 256 645 269 645 c 2
 595 645 l 1
 585 468 l 1
 532 459 l 1
 529 533 515 599 466 599 c 2
 336 599 l 2
 328 599 321 593 317 570 c 2
 230 76 l 2
EndSplineSet
EndChar

StartChar: u1D71F
Encoding: 120607 120607 55
Width: 661
GlyphClass: 2
Flags: W
TopAccentHorizontal: 450
HStem: -2 41<125 492> 642 10G<281 385>
LayerCount: 2
Fore
SplineSet
400 500 m 1
 132 39 l 1
 499 39 l 1
 462 208 437 330 400 500 c 1
500 652 m 1
 631 22 l 2
 633 14 634 9 634 8 c 0
 634 0 613 -2 590 -2 c 2
 64 -2 l 2
 38 -2 22 0 23 9 c 1
 32 22 l 1
 153 231 275 443 396 652 c 1
 500 652 l 1
EndSplineSet
EndChar

StartChar: u1D720
Encoding: 120608 120608 56
Width: 578
VWidth: 999
GlyphClass: 2
Flags: W
ItalicCorrection: 41
TopAccentHorizontal: 413
HStem: -1 37<13 95> 0 46<227 469> 323 42<225 354> 600 47<229 437> 611 37<17 100>
VStem: 101 124<52 323 365 599> 460 51<497 552>
LayerCount: 2
Fore
SplineSet
37 0 m 1
 35 2 l 1
 39 24 l 2
 40 30 44 33 48 33 c 2
 61 33 l 2
 100 33 116 45 122 77 c 2
 209 569 l 2
 209.7 573.5 210.1 577.6 210.1 581.4 c 0
 210.1 604.1 196.6 613 164 613 c 2
 150 613 l 2
 146 613 143 616 144 621 c 2
 148 644 l 1
 151 646 l 1
 599 646 l 1
 592 588 590 535 590 484 c 1
 550 475 l 1
 546 526 535 600 471 600 c 2
 346 600 l 2
 337 600 331 592 327 571 c 2
 291 365 l 1
 399 365 l 2
 423 365 433 396 446 436 c 1
 446 440 453 447 463 447 c 2
 483 447 l 1
 487 437 l 1
 482 421 470 381 464 344 c 0
 458 308 455 268 454 251 c 1
 447 242 l 1
 427 242 l 2
 417 242 412 248 413 252 c 0
 413.5 262.2 413.9 271.8 413.9 280.4 c 0
 413.9 306.1 410 323 392 323 c 2
 284 323 l 1
 240 75 l 2
 238.8 68.3 238.3 63 238.3 58.9 c 0
 238.3 49 241.6 46 248 46 c 2
 395 46 l 2
 448 46 493 105 522 179 c 1
 562 169 l 1
 543 116 522 54 506 0 c 1
 37 0 l 1
EndSplineSet
EndChar

StartChar: u1D721
Encoding: 120609 120609 57
Width: 715
VWidth: 999
GlyphClass: 2
Flags: W
TopAccentHorizontal: 460
HStem: 0 46<198 503> 600 46<136 492>
VStem: 48 56<469 527>
LayerCount: 2
Fore
SplineSet
561 0 m 1
 49 0 l 2
 36 0 32 5 33 15 c 1
 35 22 38 30 45 38 c 2
 514 579 l 2
 522 589 533 602 516 602 c 2
 310 602 l 2
 238 602 212 555 179 486 c 1
 142 491 l 1
 157 532 180 604 193 658 c 1
 228 655 223 646 269 646 c 2
 611 646 l 1
 642 649 660 650 672 650 c 0
 691 650 693 647 692 640 c 0
 690 629 684 619 660 591 c 2
 210 72 l 2
 194 53 190 44 220 44 c 2
 434 44 l 2
 507 44 544 98 576 170 c 1
 615 165 l 1
 595 113 574 56 561 0 c 1
EndSplineSet
EndChar

StartChar: u1D722
Encoding: 120610 120610 58
Width: 805
VWidth: 999
GlyphClass: 2
Flags: W
ItalicCorrection: 69
TopAccentHorizontal: 501
HStem: 1 32<29 91 431 494> 321 46<229 509> 613 32<31 103 433 506>
VStem: 106 123<49 321 367 601> 509 123<49 321 367 605>
LayerCount: 2
Fore
SplineSet
641 569 m 2
 642 573 642 578 642 582 c 0
 642 604 628 613 594 613 c 2
 580 613 l 2
 575 613 572 616 573 621 c 2
 577 645 l 1
 579 646 l 1
 579 646 677 645 716 645 c 0
 751 645 852 646 852 646 c 1
 854 645 l 1
 850 621 l 2
 849 616 845 613 841 613 c 2
 826 613 l 2
 785 613 769 597 764 569 c 2
 678 77 l 2
 677 73 676 69 676 65 c 0
 676 44 689 33 724 33 c 2
 739 33 l 2
 743 33 746 30 745 24 c 2
 741 1 l 1
 739 -1 l 1
 739 -1 637 1 602 1 c 0
 563 1 466 -1 466 -1 c 1
 464 1 l 1
 468 24 l 2
 469 30 473 33 478 33 c 2
 492 33 l 2
 532 33 549 45 554 77 c 2
 597 321 l 1
 318 321 l 1
 275 77 l 2
 274 73 273 69 273 65 c 0
 273 44 286 33 322 33 c 2
 336 33 l 2
 341 33 343 30 342 24 c 2
 338 1 l 1
 336 -1 l 1
 336 -1 235 1 199 1 c 0
 160 1 63 -1 63 -1 c 1
 61 1 l 1
 65 24 l 2
 66 30 71 33 75 33 c 2
 89 33 l 2
 129 33 146 45 152 77 c 2
 238 569 l 2
 239 573 240 578 240 582 c 0
 240 604 225 613 191 613 c 2
 177 613 l 2
 173 613 170 615 170 621 c 1
 175 645 l 1
 177 646 l 1
 177 646 274 645 313 645 c 0
 348 645 450 646 450 646 c 1
 451 645 l 1
 447 621 l 2
 446 616 443 613 438 613 c 2
 424 613 l 2
 383 613 366 597 361 569 c 2
 326 367 l 1
 606 367 l 1
 641 569 l 2
EndSplineSet
EndChar

StartChar: u1D723
Encoding: 120611 120611 59
Width: 734
VWidth: 487
GlyphClass: 2
Flags: W
ItalicCorrection: 59
TopAccentHorizontal: 493
HStem: -12 42<235 520> 297 56<251 492> 617 42<245 503>
VStem: 39 134<83 566> 211 26<248 304 355 405> 500 26<254 294 346 403> 566 134<83 574>
LayerCount: 2
Fore
SplineSet
522 353 m 2
 554 353 569 356 575 390 c 2
 576 396 l 2
 577 402 580 404 584 404 c 2
 606 404 l 1
 606 404 596 360 591 332 c 0
 585 298 579 246 579 246 c 1
 557 246 l 2
 555 246 550 247 551 254 c 2
 552 261 l 2
 553 266 544 270 544 273 c 0
 544 295 538 297 513 297 c 2
 342 297 l 2
 309 297 296 294 290 261 c 1
 289 254 l 1
 287 248 283 246 280 246 c 2
 258 246 l 1
 258 246 270 298 276 332 c 0
 281 360 286 405 286 405 c 1
 308 405 l 1
 314 404 314 400 314 397 c 2
 313 390 l 2
 312 384 303 379 303 375 c 0
 303 354 324 353 352 353 c 2
 522 353 l 2
473 617 m 0
 328 617 232 414 232 245 c 0
 232 107 303 29 402 29 c 0
 544 29 639 227 639 402 c 0
 639 544 567 617 473 617 c 0
375 -12 m 0
 213 -12 97 86 97 247 c 0
 97 442 260 658 493 658 c 0
 650 658 773 555 773 391 c 0
 773 193 619 -12 375 -12 c 0
EndSplineSet
EndChar

StartChar: u1D724
Encoding: 120612 120612 60
Width: 338
VWidth: 999
GlyphClass: 2
Flags: W
ItalicCorrection: 133
TopAccentHorizontal: 290
HStem: 1 32<20 82> 613 32<22 94>
VStem: 97 124<40 597>
LayerCount: 2
Fore
SplineSet
271 122 m 2
 267.6 103.3 265.8 88.6 265.8 77 c 0
 265.8 37 285.5 35.3 339 33 c 1
 344 27 345 4 338 -2 c 1
 288 -1 247 0 188 0 c 0
 131 0 90 -1 41 -2 c 1
 36 4 35 27 42 33 c 1
 113 36 133 39 148 122 c 2
 218 523 l 2
 221.3 541.1 223 555.5 223 567 c 0
 223 608 204.9 609.7 151 612 c 1
 146 618 144 641 151 647 c 1
 201 646 242 645 301 645 c 0
 358 645 399 646 448 647 c 1
 453 641 453 618 446 612 c 1
 375 609 356 606 341 523 c 2
 271 122 l 2
EndSplineSet
EndChar

StartChar: u1D725
Encoding: 120613 120613 61
Width: 664
VWidth: 999
GlyphClass: 2
Flags: W
ItalicCorrection: 146
TopAccentHorizontal: 476
HStem: 1 32<22 84> 613 32<24 96>
VStem: 99 124<40 294 368 601>
LayerCount: 2
Fore
SplineSet
578 574 m 2
 591 584 599 610 574 612 c 2
 553 614 l 2
 548 615 546 618 546 624 c 2
 549 646 l 1
 551 648 l 1
 551 648 666 646 702 646 c 0
 741 646 788 648 788 648 c 1
 790 646 l 1
 788 624 l 2
 788 617 782 615 778 614 c 2
 764 612 l 2
 717 606 672.7 588.2 629.5 552 c 2
 422 378 l 2
 399.8 359.4 399.3 350.5 414 331 c 2
 605 78 l 2
 625.2 51.2 642.7 38.7 659 34 c 2
 666 32 l 2
 679.5 28.1 685 26 685 22 c 2
 682 0 l 1
 678 -2 l 1
 678 -2 592 0 553 0 c 1
 494 -2 l 1
 492 0 l 1
 492 21 l 2
 492 40 468.1 70.4 450.3 97 c 2
 331 276 l 2
 323 287 315 294 301 294 c 1
 263 77 l 2
 258 46 288 37 312 34 c 2
 326 32 l 2
 331 31 333 29 333 23 c 2
 330 0 l 1
 328 -2 l 1
 328 -2 227 0 191 0 c 0
 152 0 55 -2 55 -2 c 1
 53 0 l 1
 55 23 l 2
 56 29 61 31 65 32 c 2
 79 34 l 2
 116 39 134 45 140 77 c 2
 227 570 l 2
 233 604 217 607 181 612 c 2
 167 614 l 2
 163 615 160 617 160 622 c 2
 163 646 l 1
 165 647 l 1
 165 647 262 646 301 646 c 0
 336 646 438 647 438 647 c 1
 440 646 l 1
 438 622 l 2
 437 617 433 615 428 614 c 2
 414 612 l 2
 374 606 355 597 350 570 c 2
 314 368 l 1
 322 368 331 371 348 385 c 2
 578 574 l 2
EndSplineSet
EndChar

StartChar: u1D726
Encoding: 120614 120614 62
Width: 664
VWidth: 487
GlyphClass: 2
Flags: W
TopAccentHorizontal: 362
HStem: 0 34<7 69 168 240 375 449> 647 10<328 351>
LayerCount: 2
Fore
SplineSet
141 33 m 0
 145 33 148 30 147 25 c 2
 143 1 l 1
 141 0 l 1
 141 0 58 1 20 1 c 0
 -14 1 -65 0 -65 0 c 1
 -66 1 l 1
 -62 25 l 2
 -61 30 -58 33 -53 33 c 0
 1 33 9 44 38 97 c 2
 326 635 l 2
 334 650 353 658 363 658 c 0
 373 658 388 650 390 635 c 2
 477 92 l 2
 485 46 494 33 543 33 c 0
 547 33 550 30 550 25 c 1
 545 1 l 1
 543 0 l 1
 543 0 450 1 413 1 c 0
 378 1 274 0 274 0 c 1
 273 1 l 1
 277 25 l 2
 278 30 281 33 286 33 c 0
 340.2 33 361.7 41.1 361.7 65.5 c 0
 361.7 68.1 361.5 71 361 74 c 2
 304 430 l 1
 299 461 l 1
 283 433 l 1
 96 84 l 2
 88.1 69.6 83.7 59.1 83.7 51.5 c 0
 83.7 36.9 100.2 33 141 33 c 0
EndSplineSet
EndChar

StartChar: u1D727
Encoding: 120615 120615 63
Width: 905
VWidth: 999
GlyphClass: 2
Flags: W
TopAccentHorizontal: 571
HStem: -12 10<375 388> 1 34<5 74 143 202 553 617 731 801> 611 36<51 114 692 757>
LayerCount: 2
Fore
SplineSet
644 89 m 2
 676 446 l 1
 591 300 420 7 420 7 c 2
 414 -3 404 -12 387 -12 c 0
 379 -12 364 -6 361 7 c 2
 361 7 297 266 255 437 c 1
 227 320 198 205 168 88 c 0
 167 84 167 80 166 77 c 0
 164 66 163 58 163 51 c 0
 163 41 166 35 171 35 c 2
 197 35 l 2
 211 35 228 31 226 23 c 2
 224 9 l 1
 216 -1 l 1
 216 -1 146 1 108 1 c 0
 73 1 21 -1 21 -1 c 1
 15 8 l 1
 17 23 l 2
 19 31 30 35 51 35 c 2
 77 35 l 2
 90 35 99 65 106 89 c 0
 145 244 188 417 227 572 c 0
 227 573 228 574 228 576 c 2
 229 581 l 2
 230 586 230 590 230 594 c 0
 230 606 226 611 218 611 c 2
 188 611 l 1
 167 612 160 617 160 622 c 1
 163 636 l 1
 175 647 l 1
 335 647 l 1
 453 168 l 1
 543 325 642 493 732 647 c 1
 881 647 l 1
 884 637 l 1
 882 622 l 1
 879 612 857 611 848 611 c 2
 821 611 l 2
 810 611 802 602 799 582 c 2
 797 572 l 1
 755 90 l 2
 754 82 753 73 753 65 c 0
 753 47 756 35 767 35 c 2
 792 35 l 2
 815 35 825 31 823 23 c 2
 821 8 l 1
 809 -1 l 1
 809 -1 730 1 691 1 c 0
 656 1 570 -1 570 -1 c 1
 562 8 l 1
 564 23 l 2
 566 32 582 35 598 35 c 2
 624 35 l 2
 633 35 639 57 643 77 c 0
 643 81 644 85 644 89 c 2
EndSplineSet
EndChar

StartChar: u1D728
Encoding: 120616 120616 64
Width: 809
VWidth: 999
GlyphClass: 2
Flags: W
ItalicCorrection: 63
TopAccentHorizontal: 486
HStem: -12 10<575 603> 1 32<18 80 184 258> 613 32<23 75 469 541 645 709>
VStem: 95 87<49 463> 544 87<186 605>
LayerCount: 2
Fore
SplineSet
223 547 m 1
 213 573 195.5 604.2 148 611 c 2
 134 613 l 2
 130 613.6 124.5 615.9 124 622 c 2
 122 645 l 1
 124 647 l 1
 124 647 278 646 317 646 c 1
 617 171 l 1
 619 171 l 1
 690 569 l 2
 696.1 603 679.5 605.9 644 611 c 2
 630 613 l 2
 626 613.6 623 616 623 621 c 2
 626 645 l 1
 628 646 l 1
 628 646 692 645 731 645 c 0
 766 645 850 646 850 646 c 1
 852 645 l 1
 850 621 l 2
 849 616 845 613.7 840 613 c 2
 826 611 l 2
 786.3 605.3 766.8 596.4 762 569 c 2
 667 25 l 2
 663.2 3 646 -12 617 -12 c 0
 586 -12 573 4 566 15 c 2
 303 443 l 2
 300 448 292.5 459.5 287 459.5 c 0
 281 459.5 277.6 446.9 276 438 c 2
 212 77 l 2
 206.5 46.3 237.3 37.4 261 34 c 2
 275 32 l 2
 280 31.3 282 29 282 23 c 2
 279 0 l 1
 277 -2 l 1
 277 -2 191 0 155 0 c 0
 116 0 55 -2 55 -2 c 1
 53 0 l 1
 55 23 l 2
 55.5 29.1 61 31.4 65 32 c 2
 79 34 l 2
 116.4 39.3 134.3 44.9 140 77 c 2
 223 547 l 1
EndSplineSet
EndChar

StartChar: u1D729
Encoding: 120617 120617 65
Width: 672
GlyphClass: 2
Flags: W
ItalicCorrection: 71
TopAccentHorizontal: 446
HStem: 0 70<127 548> 231 164<141 202 474 531> 281 63<208 468> 576 70<128 556>
VStem: 55 61<491 583> 55 60<115 167> 145 57<232 287 346 390> 472 56<230 279 338 392> 562 54<68 167> 562 54<486 579>
LayerCount: 2
Fore
SplineSet
509 344 m 2
 526 344 533 347 539 377 c 1
 540 384 l 2
 542 392 552 395 570 395 c 2
 601 395 l 1
 601 395 589 347 584 319 c 0
 578 286 571 231 571 231 c 1
 542 231 l 2
 532 231 514 232 515 242 c 2
 516 249 l 2
 517 255 518 260 518 264 c 0
 518 280 510 281 499 281 c 2
 275 281 l 2
 258 281 251 278 246 249 c 2
 245 242 l 1
 242 232 227 231 213 231 c 2
 182 231 l 1
 182 231 195 286 201 319 c 0
 207 348 211 396 211 396 c 1
 243 396 l 2
 268 396 271 388 270 384 c 2
 269 377 l 2
 267 370 267 364 267 359 c 0
 267 345 273 344 286 344 c 2
 509 344 l 2
702 491 m 1
 648 491 l 1
 650 509 651 524 651 535 c 0
 651 575 639 576 603 576 c 2
 278 576 l 2
 229 576 223 573 203 491 c 1
 142 491 l 1
 142 492 173 636 177 650 c 1
 234 650 l 1
 234 648 231 646 224 646 c 2
 677 646 l 2
 671 646 670 648 672 650 c 1
 723 650 l 1
 721 641 706 522 702 491 c 1
84 167 m 1
 145 167 l 1
 143 146 142 130 142 117 c 0
 142 74 153 71 177 70 c 1
 510 70 l 2
 560 70 569 79 591 167 c 1
 645 167 l 1
 607 -4 l 1
 555 -4 l 1
 554 -1 559 0 564 0 c 2
 118 0 l 2
 125 0 129 -2 128 -4 c 1
 62 -4 l 1
 84 167 l 1
EndSplineSet
EndChar

StartChar: u1D72A
Encoding: 120618 120618 66
Width: 734
VWidth: 999
GlyphClass: 2
Flags: W
ItalicCorrection: 59
TopAccentHorizontal: 475
HStem: -12 42<235 520> 617 42<245 503>
VStem: 39 134<83 566> 566 134<83 574>
LayerCount: 2
Fore
SplineSet
473 617 m 0
 328 617 232 414 232 245 c 0
 232 107 303 29 402 29 c 0
 544 29 639 227 639 402 c 0
 639 544 567 617 473 617 c 0
375 -12 m 0
 213 -12 97 86 97 247 c 0
 97 442 260 658 493 658 c 0
 650 658 773 555 773 391 c 0
 773 193 619 -12 375 -12 c 0
EndSplineSet
EndChar

StartChar: u1D72B
Encoding: 120619 120619 67
Width: 691
GlyphClass: 2
Flags: W
ItalicCorrection: 122
TopAccentHorizontal: 459
HStem: 1 34<13 91 225 296 388 461 595 671> 598 46<224 471> 611 35<17 93 606 675>
VStem: 99 123<50 600> 469 123<42 588>
LayerCount: 2
Fore
SplineSet
482 75 m 2
 567 558 l 2
 569 568 570 576 570 583 c 0
 570 592 568 598 561 598 c 2
 342 598 l 2
 330 598 326 587 320 557 c 2
 235 75 l 2
 234 69 234 64 234 61 c 0
 234 43 242 35 261 35 c 2
 282 35 l 2
 298 35 311 31 310 23 c 2
 307 8 l 1
 295 -1 l 1
 295 -1 201 1 162 1 c 0
 127 1 20 -1 20 -1 c 1
 13 8 l 1
 15 23 l 2
 17 31 28 35 47 35 c 2
 73 35 l 2
 97 35 108 50 112 75 c 2
 200 571 l 2
 201 578 202 583 202 587 c 0
 202 607 192 611 178 611 c 2
 148 611 l 2
 125 611 120 617 121 623 c 2
 125 645 l 1
 148 646 l 2
 151 646 171 646 194 646 c 0
 226 645 264 645 272 645 c 0
 296 645 319 645 342 644 c 1
 374 644 417 643 456 643 c 0
 491 643 522 644 557 644 c 1
 582 645 614 645 642 645 c 0
 646 645 695 646 732 646 c 1
 752 647 786 647 786 647 c 1
 793 638 l 1
 791 623 l 2
 790 617 776 611 759 611 c 2
 730 611 l 1
 713 610 698 599 693 571 c 2
 605 75 l 2
 604 69 604 64 604 61 c 0
 604 43 612 35 631 35 c 2
 657 35 l 2
 673 35 686 31 685 23 c 2
 682 8 l 1
 671 -1 l 1
 671 -1 571 1 533 1 c 0
 498 1 396 -1 396 -1 c 1
 388 8 l 1
 390 23 l 2
 392 31 404 35 422 35 c 2
 443 35 l 2
 467 35 478 50 482 75 c 2
EndSplineSet
EndChar

StartChar: u1D72C
Encoding: 120620 120620 68
Width: 637
VWidth: 999
GlyphClass: 2
Flags: W
TopAccentHorizontal: 417
HStem: 1 32<19 82> 279 41<206 376> 612 32<9 87> 613 42<243 354>
VStem: 97 123<42 282 322 604> 399 128<374 562>
LayerCount: 2
Fore
SplineSet
319 604 m 1
 269 322 l 1
 283 320 302 319 316 319 c 0
 395 319 449 363 467 467 c 0
 488 589 433 613 377 613 c 0
 366 613 339 609 319 604 c 1
108 77 m 2
 195 572 l 2
 202 607 191 618 171 618 c 2
 140 618 l 2
 133 618 130 622 131 626 c 2
 134 645 l 1
 139 646 l 1
 196 646 315 654 392 654 c 0
 585 654 602 544 592 484 c 0
 577 399 503 279 314 279 c 0
 291 279 275 280 262 282 c 1
 225 77 l 2
 221 50 231 33 270 33 c 2
 284 33 l 2
 289 33 291 30 290 24 c 2
 286 1 l 1
 284 -1 l 1
 284 -1 187 1 152 1 c 0
 115 1 22 -1 22 -1 c 1
 21 1 l 1
 25 24 l 2
 26 30 30 33 34 33 c 2
 48 33 l 2
 86 33 103 45 108 77 c 2
EndSplineSet
EndChar

StartChar: u1D72D
Encoding: 120621 120621 69
Width: 734
VWidth: 999
GlyphClass: 2
Flags: W
ItalicCorrection: 59
TopAccentHorizontal: 493
HStem: -12 42<220 505> 302 45<82 572> 617 42<230 488>
VStem: 24 134<83 566> 552 134<83 574>
LayerCount: 2
Fore
SplineSet
375 -12 m 0
 213 -12 97 86 97 247 c 0
 97 442 260 658 493 658 c 0
 650 658 773 555 773 391 c 0
 773 193 619 -12 375 -12 c 0
636 347 m 1
 638 365.4 639 383.8 639 402 c 0
 639 544 567 617 473 617 c 0
 356.6 617 271.7 486.1 242.8 347 c 1
 636 347 l 1
629.2 302 m 1
 235.5 302 l 1
 233.2 282.8 232 263.7 232 245 c 0
 232 107 303 29 402 29 c 0
 517.2 29 601.5 159.3 629.2 302 c 1
EndSplineSet
EndChar

StartChar: u1D72E
Encoding: 120622 120622 70
Width: 618
GlyphClass: 2
Flags: W
ItalicCorrection: 76
TopAccentHorizontal: 455
HStem: -1 51<162 453> 596 50<207 495> 611 36<37 59>
LayerCount: 2
Fore
SplineSet
674 646 m 1
 664 502 l 1
 606 497 l 1
 598 552 588 596 551 596 c 2
 312 596 l 1
 357 508 403 418 448 331 c 1
 449 333 l 1
 449 328 l 2
 449 329 448 330 448 331 c 2
 171 50 l 1
 462 50 l 2
 512 50 532 94 563 169 c 1
 620 165 l 1
 575 0 l 1
 36 -1 l 1
 28 8 l 1
 31 25 l 1
 39 35 l 1
 52 35 66 37 76 46 c 0
 160 133 250 224 334 310 c 1
 290 396 245 485 200 571 c 1
 180 605 158 611 145 611 c 1
 137 621 l 1
 140 638 l 1
 151 647 l 1
 275 646 l 1
 674 646 l 1
EndSplineSet
EndChar

StartChar: u1D72F
Encoding: 120623 120623 71
Width: 598
VWidth: 999
GlyphClass: 2
Flags: W
ItalicCorrection: 78
TopAccentHorizontal: 381
HStem: 1 32<153 228 368 454> 593 46<88 242 373 510>
VStem: 243 123<40 585>
LayerCount: 2
Fore
SplineSet
189 646 m 2
 595 646 l 2
 616 646 619 663 621 669 c 1
 656 673 l 1
 651 624 649 572 650 519 c 1
 610 514 l 1
 605 594 594 599 541 599 c 2
 489 599 l 2
 455 599 441 590 436 557 c 2
 351 77 l 2
 346 46 358 33 396 33 c 2
 421 33 l 2
 425 33 428 30 427 24 c 2
 423 1 l 1
 421 -1 l 1
 421 -1 307 1 269 1 c 0
 235 1 137 -1 137 -1 c 1
 135 1 l 1
 139 24 l 2
 140 30 144 33 148 33 c 2
 173 33 l 2
 213 33 229 49 234 77 c 2
 319 560 l 2
 324 590 314 599 279 599 c 2
 228 599 l 2
 175 599 161 594 128 514 c 1
 91 519 l 1
 111 572 127 624 139 673 c 1
 173 669 l 1
 172 663 169 646 189 646 c 2
EndSplineSet
EndChar

StartChar: u1D730
Encoding: 120624 120624 72
Width: 617
VWidth: 999
GlyphClass: 2
Flags: W
ItalicCorrection: 109
TopAccentHorizontal: 435
HStem: -1 34<187 276 410 480> 611 37<143 186 332 384 531 574 655 733>
DStem2: 335 575 206 569 0.375779 -0.926709<0 214.905> 284 77 407 77 0.173285 0.984872<21.3222 211.688> 418 377 446 296 0.57737 0.816483<0 244.182>
LayerCount: 2
Fore
SplineSet
257 72 m 2
 293 281 l 1
 191 553 l 1
 168 610 156 613 130 613 c 2
 119 613 l 2
 113 613 108 615 109 620 c 2
 114 645 l 1
 116 646 l 1
 116 646 225 645 238 645 c 0
 243 645 347 646 347 646 c 1
 349 645 l 1
 345 621 l 2
 344 617 341 613 337 613 c 0
 288 613 277 609 291 576 c 1
 381 334 l 1
 547 576 l 2
 561 596 547 613 512 613 c 0
 507 613 507 617 508 620 c 2
 512 645 l 1
 514 646 l 1
 514 646 590 645 601 645 c 0
 610 645 704 646 704 646 c 1
 706 645 l 1
 702 621 l 2
 701 615 697 613 691 613 c 2
 671 613 l 2
 642 613 627 606 605 574 c 2
 413 293 l 1
 374 72 l 2
 368 41 382 33 420 33 c 2
 445 33 l 2
 449 33 453 30 452 24 c 2
 448 1 l 1
 445 -1 l 1
 445 -1 341 1 304 1 c 0
 269 1 160 -1 160 -1 c 1
 160 1 l 1
 164 24 l 2
 165 30 167 33 172 33 c 2
 198 33 l 2
 237 33 252 44 257 72 c 2
EndSplineSet
EndChar

StartChar: u1D731
Encoding: 120625 120625 73
Width: 695
GlyphClass: 2
Flags: W
ItalicCorrection: 50
TopAccentHorizontal: 465
HStem: 1 34<208 287 412 489> 611 34<208 285 418 497>
VStem: 31 121<257 424> 287 124<42 112 149 499 536 604> 542 121<241 464>
LayerCount: 2
Fore
SplineSet
499 499 m 1
 437 148 l 1
 559 170 588 260 600 324 c 0
 603 341 604 356 604 371 c 0
 604 450 559 486 499 499 c 1
313 149 m 1
 375 501 l 1
 306 490 231 448 210 331 c 0
 208 315 206 300 206 287 c 0
 206 206 253 163 313 149 c 1
261 35 m 2
 286 35 296 49 300 74 c 2
 307 112 l 1
 116 130 85 228 85 290 c 0
 85 303 86 315 88 324 c 0
 102 401 188 512 381 535 c 1
 388 571 l 2
 389 577 389 582 389 586 c 0
 389 603 381 611 363 611 c 2
 337 611 l 2
 321 611 307 615 309 623 c 2
 311 638 l 1
 323 647 l 1
 323 647 422 645 461 645 c 0
 496 645 603 647 603 647 c 1
 611 638 l 1
 608 623 l 2
 607 615 595 611 577 611 c 2
 551 611 l 2
 526 611 516 596 511 571 c 2
 505 536 l 1
 643 520 725 448 725 358 c 0
 725 350 724 340 722 331 c 0
 705 235 592 134 431 113 c 1
 424 74 l 2
 423 69 422 64 422 60 c 0
 422 42 430 35 449 35 c 2
 475 35 l 2
 491 35 504 31 503 23 c 2
 500 8 l 1
 489 -1 l 1
 489 -1 389 1 351 1 c 0
 315 1 208 -1 208 -1 c 1
 201 8 l 1
 203 23 l 2
 205 31 217 35 235 35 c 2
 261 35 l 2
EndSplineSet
EndChar

StartChar: u1D732
Encoding: 120626 120626 74
Width: 769
VWidth: 999
GlyphClass: 2
Flags: W
ItalicCorrection: 21
TopAccentHorizontal: 472
HStem: -1 37<-3 55 623 673> 611 37<22 57 213 279 431 479 598 652>
LayerCount: 2
Fore
SplineSet
132 620 m 2
 137 645 l 1
 142 646 l 1
 167 646 228 645 238 645 c 0
 243 645 363 646 393 646 c 1
 393 646 396 645 397 645 c 2
 392 620 l 2
 392 615 389 613 386 613 c 0
 337 613 330 603 344 572 c 2
 418 414 l 1
 428 396 430 397 445 412 c 0
 492 461 552 524 587 572 c 1
 612 609 580 613 558 613 c 0
 555 613 552 615 553 620 c 2
 557 645 l 1
 559 646 l 1
 580 646 664 645 674 645 c 0
 679 645 751 646 769 646 c 1
 770 645 l 1
 766 620 l 2
 765 617 765 613 756 613 c 0
 707 613 673 586 640 552 c 2
 472 383 l 2
 451 362 451 358 475 312 c 2
 585 102 l 2
 605 63 633 33 675 33 c 0
 680 33 681 29 680 25 c 2
 676 1 l 1
 675 -1 l 1
 648 0 585 1 573 1 c 0
 567 1 413 -1 413 -1 c 1
 411 1 l 1
 415 26 l 2
 416 30 419 33 422 33 c 0
 480 33 479 38 461 73 c 2
 374 246 l 1
 360 277 357 277 340 258 c 0
 288 201 234 136 189 77 c 0
 158 35 193 33 215 33 c 0
 219 33 220 29 219 25 c 2
 215 1 l 1
 212 -1 l 1
 212 -1 100 1 86 1 c 0
 82 1 5 -1 5 -1 c 1
 5 1 l 1
 9 26 l 2
 10 31 15 33 21 33 c 0
 78 33 107 65 144 104 c 2
 317 291 l 1
 337 311 337 316 323 344 c 2
 221 549 l 2
 193 605 158 613 142 613 c 0
 135 613 131 615 132 620 c 2
EndSplineSet
EndChar

StartChar: u1D733
Encoding: 120627 120627 75
Width: 711
GlyphClass: 2
Flags: W
ItalicCorrection: 111
TopAccentHorizontal: 478
HStem: 1 34<215 292 426 503> 611 34<222 298 432 510>
VStem: 89 112<283 594> 301 123<42 204 250 604> 511 111<406 535>
LayerCount: 2
Fore
SplineSet
732 617 m 1
 760 617 l 2
 784 617 802 615 802 603 c 0
 802 597 794 593 770 586 c 0
 753 582 724 573 706 472 c 0
 675 296 562 227 460 206 c 1
 437 74 l 2
 436 69 436 64 436 60 c 0
 436 43 444 35 463 35 c 2
 489 35 l 2
 505 35 518 31 516 23 c 2
 514 8 l 1
 502 -1 l 1
 502 -1 403 1 364 1 c 0
 329 1 222 -1 222 -1 c 1
 214 8 l 1
 217 23 l 2
 218 31 230 35 249 35 c 2
 275 35 l 2
 299 35 310 49 314 74 c 2
 337 204 l 1
 247 219 163 269 163 392 c 0
 163 409 165 428 168 449 c 0
 174 483 177 509 177 529 c 0
 177 580 160 585 148 588 c 0
 133 593 122 597 122 601 c 0
 122 617 152 617 166 617 c 2
 197 617 l 1
 257 616 288 582 288 516 c 0
 288 501 287 484 283 465 c 0
 278 435 275 408 275 385 c 0
 275 301 307 260 344 243 c 1
 401 571 l 2
 402 577 403 582 403 585 c 0
 403 603 395 611 376 611 c 2
 351 611 l 2
 334 611 321 615 322 623 c 2
 325 638 l 1
 336 647 l 1
 336 647 436 645 475 645 c 0
 510 645 617 647 617 647 c 1
 624 638 l 1
 622 623 l 2
 620 615 609 611 590 611 c 2
 564 611 l 2
 540 611 529 596 524 571 c 2
 468 250 l 1
 561 298 589 443 595 476 c 0
 603 521 616 562 658 595 c 0
 675 609 702 615 732 617 c 1
EndSplineSet
EndChar

StartChar: u1D734
Encoding: 120628 120628 76
Width: 717
GlyphClass: 2
Flags: W
ItalicCorrection: 54
TopAccentHorizontal: 479
HStem: 0 125<42 104 614 675> 0 65<111 236 485 593> 617 42<202 510>
VStem: 35 69<52 119> 43 130<230 541> 549 130<236 555> 614 69<78 125>
LayerCount: 2
Fore
SplineSet
511 119 m 1
 497 65 l 1
 571 65 l 2
 604 65 620 69 636 125 c 1
 705 125 l 1
 675 0 l 1
 448 0 l 2
 424 0 414 6 414 16 c 0
 414 17 414 19 414 20 c 2
 444 142 l 1
 545 195 597 268 616 376 c 0
 620 398 621 418 621 438 c 0
 621 543 567 617 470 617 c 0
 348 617 263 503 240 377 c 0
 236 354 234 333 234 313 c 0
 234 239 265 190 329 142 c 1
 315 20 l 2
 313 8 298 0 273 0 c 2
 42 0 l 1
 57 125 l 1
 126 125 l 1
 125 118 125 111 125 106 c 0
 125 71 138 65 170 65 c 2
 248 65 l 1
 250 84 251 101 253 119 c 1
 268 115 l 1
 172 150 106 228 106 332 c 0
 106 346 107 361 110 376 c 0
 133 509 268 658 478 658 c 0
 664 658 751 555 751 429 c 0
 751 412 749 394 746 376 c 0
 725 259 621 155 495 115 c 1
 511 119 l 1
EndSplineSet
EndChar

StartChar: u1D735
Encoding: 120629 120629 77
Width: 795
Flags: W
ItalicCorrection: 27
TopAccentHorizontal: 508
HStem: 0 10G<333 426> 657 39<169 534>
LayerCount: 2
Fore
SplineSet
333 0 m 1
 426 0 l 1
 547.8 222.7 671.2 449.3 792 672 c 1
 801 683 802 686 802 687 c 0
 802 691 796 693 786 695 c 1
 769 696 l 1
 256 696 l 2
 225 696 219 690 219 686 c 0
 219 685 220 680 223 672 c 1
 222 673 l 1
 333 0 l 1
386 141 m 1
 303 657 l 1
 667 657 l 1
 573 482 481 314 386 141 c 1
EndSplineSet
EndChar

StartChar: u1D736
Encoding: 120630 120630 78
Width: 638
GlyphClass: 2
Flags: W
ItalicCorrection: 112
TopAccentHorizontal: 367
HStem: -12 38<172 303> 408 37<164 349>
VStem: 36 123<122 370>
LayerCount: 2
Fore
SplineSet
365 445 m 0
 468 445 502 392 508 312 c 1
 606 448 l 1
 637 443 650 442 662 442 c 0
 676 442 701 444 730 447 c 1
 511 147 l 1
 510 135 509 122 509 112 c 0
 509 76 516 59 526 59 c 0
 541 59 565 68 600 120 c 1
 643 102 l 1
 595 20 562 -12 504 -12 c 0
 463 -12 440 10 435 57 c 1
 381 7 325 -12 260 -12 c 0
 135 -12 75 50 75 143 c 0
 75 262 168 445 365 445 c 0
433 206 m 1
 433 241 l 2
 433 338 424 408 356 408 c 0
 246 408 203 236 203 152 c 0
 203 88 222 26 277 26 c 0
 302 26 360 106 414 180 c 2
 433 206 l 1
EndSplineSet
EndChar

StartChar: u1D737
Encoding: 120631 120631 79
Width: 542
GlyphClass: 2
Flags: W
ItalicCorrection: 74
TopAccentHorizontal: 443
HStem: -12 32<284 385> 367 72<214 275> 383 37<301 348> 661 37<230 332>
VStem: 74 117<-187 60 61 590> 348 117<491 623> 382 124<119 273>
LayerCount: 2
Fore
SplineSet
359 402 m 1
 358 402 357 403 356 403 c 1
 356 402 356 401 355 400 c 1
 356 401 357 401 359 402 c 1
304 489 m 2
 206 61 l 1
 264 97 l 1
 276 57 293 20 311 20 c 0
 371 20 414 138 428 201 c 1
 434 223 438 257 438 289 c 0
 438 337 427 383 390 383 c 0
 387 383 376 379 367 375 c 0
 358 371 349 367 333 367 c 0
 304 367 291 376 291 395 c 0
 291 398 292 401 292 405 c 1
 297 424 323 438 349 438 c 0
 369 438 378 433 387 428 c 0
 395 424 400 420 400 420 c 1
 435 420 464 503 474 544 c 0
 477 558 479 572 479 584 c 0
 479 627 460 661 426 661 c 0
 393 661 339 639 304 489 c 2
28 -199 m 1
 170 416 l 2
 201 550 287 698 444 698 c 0
 524 698 596 660 596 584 c 0
 596 575 595 564 593 554 c 0
 575 477 504 433 432 405 c 1
 479 394 560 360 560 258 c 0
 560 243 558 225 553 205 c 0
 527 92 438 -12 310 -12 c 0
 250 -12 215 22 205 60 c 1
 148 -187 l 1
 41 -233 l 1
 28 -199 l 1
EndSplineSet
EndChar

StartChar: u1D738
Encoding: 120632 120632 80
Width: 550
GlyphClass: 2
Flags: W
ItalicCorrection: 82
TopAccentHorizontal: 409
HStem: 375 70<104 143>
VStem: 430 91<287 386>
LayerCount: 2
Fore
SplineSet
611 386 m 0
 593 310 502 159 340 -12 c 1
 345 -9 l 1
 343 -42 338 -69 332 -96 c 0
 324 -131 281 -263 204 -263 c 0
 160 -263 149 -230 149 -201 c 0
 149 -191 150 -182 152 -174 c 0
 163 -130 203 -72 273 1 c 1
 269 -2 l 1
 269 4 269 9 269 15 c 0
 269 152 251 267 220 352 c 0
 214 367 208 375 203 375 c 0
 193 375 168 343 142 304 c 1
 83 325 l 1
 112 376 167 445 246 445 c 0
 325 445 337 410 343 363 c 0
 350 304 355 242 355 175 c 0
 355 146 354 115 352 83 c 1
 429 177 491 265 503 316 c 0
 505 324 506 330 506 334 c 0
 506 342 503 345 500 347 c 0
 486 354 465 373 465 393 c 0
 465 395 466 397 466 399 c 0
 474 431 507 445 543 445 c 0
 583 445 612 425 612 396 c 0
 612 393 611 390 611 386 c 0
EndSplineSet
EndChar

StartChar: u1D739
Encoding: 120633 120633 81
Width: 540
GlyphClass: 2
Flags: W
ItalicCorrection: 70
TopAccentHorizontal: 426
HStem: -12 37<175 330> 429 10G<229 229> 658 40<217 287>
VStem: 44 119<115 352> 111 95<560 649> 384 122<12 282>
LayerCount: 2
Fore
SplineSet
390 377 m 1
 373 396 l 1
 307 370 237 321 213 217 c 0
 208 195 205 171 205 147 c 0
 205 84 226 25 281 25 c 0
 323 25 397 56 433 214 c 0
 436 226 438 239 438 252 c 0
 438 297 421 347 390 377 c 1
342 427 m 1
 330 438 l 1
 274 494 244 529 244 568 c 0
 244 575 245 581 247 587 c 0
 265 666 349 698 428 698 c 0
 533 698 590 645 590 609 c 0
 590 607 590 605 589 603 c 0
 582 571 543 563 521 563 c 0
 504 563 473 571 462 608 c 0
 452 645 434 658 418 658 c 0
 380 658 353 637 343 597 c 0
 343 595 343 592 343 590 c 0
 343 563 378 531 413 498 c 0
 498 420 562 351 562 266 c 0
 562 253 561 239 558 226 c 0
 520 62 377 -12 261 -12 c 0
 146 -12 84 56 84 148 c 0
 84 165 86 182 90 200 c 0
 120 328 242 394 342 427 c 1
EndSplineSet
EndChar

StartChar: u1D73A
Encoding: 120634 120634 82
Width: 435
GlyphClass: 2
Flags: W
ItalicCorrection: 63
TopAccentHorizontal: 340
HStem: -12 41<181 287> 202 46<248 326> 208 35<193 233> 408 37<202 256>
VStem: 44 121<55 153> 64 113<263 376>
LayerCount: 2
Fore
SplineSet
193 121 m 0
 191 111 190 102 190 93 c 0
 190 56 210 29 247 29 c 0
 283 29 332 53 390 87 c 1
 409 52 l 1
 366 19 300 -12 227 -12 c 0
 99 -12 68 42 68 89 c 0
 68 100 70 109 72 118 c 0
 77 141 91 194 194 229 c 1
 156 247 136 267 136 300 c 0
 136 307 137 314 138 322 c 0
 148 363 205 445 339 445 c 0
 422 445 478 413 478 377 c 0
 478 375 478 373 477 370 c 0
 470 338 432 330 411 330 c 0
 373 330 364 346 359 364 c 0
 353 384 345 408 325 408 c 0
 303 408 267 386 252 325 c 0
 249 310 247 297 247 288 c 0
 247 253 265 243 289 243 c 1
 289 243 292 244 297 244 c 0
 311 246 335 248 341 248 c 0
 371 248 387 242 387 230 c 0
 387 229 387 228 386 227 c 0
 383 212 369 202 330 202 c 0
 324 202 312 204 303 205 c 0
 293 207 282 208 280 208 c 0
 239 208 206 175 193 121 c 0
EndSplineSet
EndChar

StartChar: u1D73B
Encoding: 120635 120635 83
Width: 496
GlyphClass: 2
Flags: W
ItalicCorrection: 101
TopAccentHorizontal: 388
HStem: -204 47<252 390> -6 79<143 382> 510 38<178 240>
VStem: 61 108<112 302 551 617> 388 76<-136 -14>
LayerCount: 2
Fore
SplineSet
371 642 m 1
 355 637 l 2
 352 636 311 615 300 570 c 0
 300 568 300 567 300 566 c 0
 300 554 315 547 339 547 c 0
 359 547 382 550 413 554 c 1
 400 553 l 1
 449 595 496 623 529 623 c 0
 563 623 577 610 577 591 c 0
 577 587 576 583 575 578 c 0
 568 550 511 528 421 517 c 1
 436 518 l 1
 262 347 231 279 214 203 c 0
 209 184 206 166 206 149 c 0
 206 104 230 73 319 73 c 0
 406 73 454 37 454 -26 c 0
 454 -38 453 -49 450 -62 c 0
 437 -119 377 -204 205 -204 c 0
 161 -204 106 -190 106 -155 c 0
 106 -152 106 -149 107 -146 c 0
 112 -123 134 -108 172 -108 c 0
 208 -108 217 -119 225 -132 c 0
 233 -145 242 -157 258 -157 c 0
 332 -157 360 -120 373 -63 c 0
 375 -57 375 -51 375 -46 c 0
 375 -20 356 -6 313 -6 c 0
 143 -6 97 53 97 129 c 0
 97 149 100 171 105 193 c 0
 126 284 191 363 357 513 c 1
 333 511 314 510 296 510 c 0
 232 510 191 523 191 561 c 0
 191 565 192 569 193 575 c 0
 201 607 267 639 366 672 c 1
 371 642 l 1
EndSplineSet
EndChar

StartChar: u1D73C
Encoding: 120636 120636 84
Width: 561
GlyphClass: 2
Flags: W
TopAccentHorizontal: 402
HStem: 389 56<267 371>
VStem: 99 117<13 321> 369 117<-124 357>
LayerCount: 2
Fore
SplineSet
319 445 m 1
 306 398 l 1
 340 422 389 445 454 445 c 0
 518 445 560 417 560 346 c 0
 560 328 557 308 551 284 c 2
 486 0 l 2
 465 -90 459 -141 459 -174 c 0
 459 -187 459 -196 461 -205 c 1
 435 -237 l 1
 336 -188 l 1
 336 -147 350 -83 369 0 c 2
 433 277 l 2
 438 300 441 322 441 340 c 0
 441 370 432 389 405 389 c 0
 364 389 329 364 291 321 c 1
 219 13 l 1
 112 -33 l 1
 99 1 l 1
 177 337 l 2
 180 352 182 361 182 367 c 0
 182 376 179 378 176 378 c 0
 166 378 158 375 122 369 c 1
 125 405 l 1
 143 408 188 416 212 422 c 1
 223 426 237 432 247 436 c 0
 259 441 267 445 282 445 c 2
 319 445 l 1
EndSplineSet
EndChar

StartChar: u1D73D
Encoding: 120637 120637 85
Width: 498
GlyphClass: 2
Flags: W
ItalicCorrection: 85
TopAccentHorizontal: 409
HStem: -12 38<170 333> 311 46<144 355> 644 37<158 325>
VStem: 29 114<129 311 357 520> 355 114<128 311 357 553>
LayerCount: 2
Fore
SplineSet
427 311 m 1
 215 311 l 1
 204 260 198 209 198 165 c 0
 198 85 217 25 257 25 c 0
 320 25 393 170 427 311 c 1
395 644 m 0
 328 644 256 482 226 357 c 1
 438 357 l 1
 449 410 455 460 455 504 c 0
 455 586 435 644 395 644 c 0
106 334 m 0
 160 565 301 681 410 681 c 0
 480 681 563 625 563 470 c 0
 563 432 558 387 546 334 c 0
 486 76 332 -12 244 -12 c 0
 168 -12 90 50 90 201 c 0
 90 239 95 284 106 334 c 0
EndSplineSet
EndChar

StartChar: u1D73E
Encoding: 120638 120638 86
Width: 328
GlyphClass: 2
Flags: W
ItalicCorrection: 39
TopAccentHorizontal: 248
HStem: -12 60<173 271.795> 425 20G<274.5 319>
VStem: 114 118<48.106 157.469>
DStem2: 98.672 -12 215.672 -12 0.199368 0.979925<98.3478 391.844>
LayerCount: 2
Fore
SplineSet
319 445 m 1
 235 83 l 2
 233 74 232 66 232 61 c 0
 232 52 234 48 240 48 c 0
 258 48 290 72 322 104 c 1
 347 79 l 1
 312 32 254 -12 205 -12 c 0
 141 -12 114 11 114 52 c 0
 114 62 116 72 118 83 c 2
 177 337 l 2
 181 354 183 365 183 371 c 0
 183 376 181 378 178 378 c 0
 168 378 158 375 122 369 c 1
 125 405 l 1
 143 408 188 416 212 422 c 1
 223 426 237 432 247 436 c 0
 259 441 267 445 282 445 c 2
 319 445 l 1
EndSplineSet
EndChar

StartChar: u1D73F
Encoding: 120639 120639 87
Width: 530
GlyphClass: 2
Flags: W
ItalicCorrection: 79
TopAccentHorizontal: 393
HStem: -12 21G<363 403> 343 102<473.977 570.666>
DStem2: 86.0826 -28 203.641 -28 0.199368 0.979925<70.3798 210.81 314.567 409.418> 355 272 271 183 0.284427 -0.958698<61.4322 236.716>
LayerCount: 2
Fore
SplineSet
587 390 m 0
 583 367 549 343 520 343 c 0
 486 343 468 361 468 379 c 0
 468 381 468 383 469 385 c 1
 460 380 438 357 397 315 c 2
 355 272 l 1
 371 219 387 165 403 111 c 0
 416 67 424 46 431 46 c 1
 430 46 453 66 491 101 c 1
 491 101 519 70 527 70 c 1
 458 4 426 -12 380 -12 c 0
 346 -12 322 3 304 64 c 0
 291 111 285 135 271 183 c 1
 244 155 l 1
 213 18 l 1
 106 -28 l 1
 93 6 l 1
 169 337 l 2
 173 356 175 366 175 372 c 0
 175 376 174 378 172 378 c 0
 162 378 150 375 114 369 c 1
 117 405 l 1
 198 418 228 431 243 438 c 1
 251 443 259 445 274 445 c 2
 311 445 l 1
 268 256 l 1
 291 281 311 300 333 325 c 1
 395 390 447 445 525 445 c 0
 561 445 589 438 589 406 c 0
 589 401 589 396 587 390 c 0
EndSplineSet
EndChar

StartChar: u1D740
Encoding: 120640 120640 88
Width: 581
GlyphClass: 2
Flags: W
ItalicCorrection: 32
TopAccentHorizontal: 324
HStem: -12 10G<429 487> 630 67<120 168>
LayerCount: 2
Fore
SplineSet
584 104 m 1
 593 100 l 1
 560 38 509 -12 458 -12 c 0
 395 -12 371 34 364 127 c 1
 354 305 l 1
 289 208 223 110 157 13 c 1
 50 -15 l 1
 16 0 l 1
 343 428 l 1
 343 443 341 460 340 476 c 0
 329 600 308 630 290 630 c 0
 271 630 239 614 202 589 c 1
 187 634 l 1
 223 674 277 698 319 698 c 0
 347 698 417 680 425 567 c 2
 446 270 l 2
 457 121 463 62 479 62 c 0
 490 62 507 75 544 132 c 1
 584 104 l 1
EndSplineSet
EndChar

StartChar: u1D741
Encoding: 120641 120641 89
Width: 545
VWidth: 999
GlyphClass: 2
Flags: W
ItalicCorrection: 22
TopAccentHorizontal: 350
HStem: -232 10<116 142> -12 53<183 275 442 473>
VStem: 59 118<94 364> 59 123<-219 -133> 326 117<98 434>
LayerCount: 2
Fore
SplineSet
73 -232 m 0
 55 -232 20 -211 20 -176 c 0
 20 -172 20 -167 21 -163 c 0
 26 -142 34 -118 44 -92 c 0
 54 -66 67 -40 75 -4 c 0
 78 10 80 26 83 46 c 0
 87 72 83 104 91 137 c 2
 134 323 l 2
 139 348 148 434 148 434 c 1
 276 447 l 1
 276 447 263 375 256 343 c 2
 211 150 l 2
 205 125 202 103 202 85 c 0
 202 58 210 41 232 41 c 0
 272 41 320 68 348 98 c 1
 426 434 l 1
 547 448 l 1
 472 126 l 2
 464 90 459 66 459 54 c 0
 459 46 461 42 465 42 c 0
 479 42 491 51 512 83 c 1
 542 70 l 1
 511 19 480 -12 411 -12 c 0
 376 -12 358 11 351 43 c 1
 303 10 256 -12 201 -12 c 0
 185 -12 170 -9 157 -3 c 1
 152 -35 148 -67 148 -96 c 1
 147 -122 147 -151 143 -168 c 0
 133 -211 104 -232 73 -232 c 0
EndSplineSet
EndChar

StartChar: u1D742
Encoding: 120642 120642 90
Width: 517
GlyphClass: 2
Flags: W
ItalicCorrection: 84
TopAccentHorizontal: 390
HStem: -12 10G<206 291> 383 62<70 147>
LayerCount: 2
Fore
SplineSet
527 445 m 0
 564 445 581 425 581 401 c 0
 581 397 581 393 580 388 c 0
 576 372 565 349 551 324 c 0
 504 238 442 156 288 -12 c 1
 203 -12 l 1
 214 46 220 123 220 193 c 0
 220 295 208 383 185 383 c 0
 165 383 147 371 131 353 c 1
 98 377 l 1
 132 412 173 445 219 445 c 0
 294 445 311 340 320 246 c 0
 324 211 326 171 326 135 c 0
 326 127 326 120 325 113 c 1
 412 220 458 278 465 309 c 0
 468 319 469 327 469 333 c 0
 469 348 463 355 458 360 c 0
 451 367 449 375 449 385 c 0
 449 390 449 396 451 401 c 0
 455 418 482 445 527 445 c 0
EndSplineSet
EndChar

StartChar: u1D743
Encoding: 120643 120643 91
Width: 460
GlyphClass: 2
Flags: W
ItalicCorrection: 120
TopAccentHorizontal: 368
HStem: -209 47<250 352> -12 77<142 345> 271 74<311 375> 511 83<282 373>
VStem: 45 102<91 223> 75 96<539 609> 75 110<326 435> 365 72<-142 -13>
LayerCount: 2
Fore
SplineSet
481 556 m 1
 476 553 470 550 464 547 c 1
 471 549 478 552 481 556 c 1
348 -73 m 0
 350 -67 351 -62 351 -57 c 0
 351 -23 321 -12 276 -12 c 0
 119 -12 76 44 76 111 c 0
 76 126 78 142 81 157 c 0
 94 212 140 248 209 276 c 1
 177 300 161 326 161 358 c 0
 161 366 162 375 164 384 c 0
 173 423 222 464 305 503 c 1
 301 503 l 2
 247 503 205 513 205 552 c 0
 205 557 205 562 206 568 c 0
 214 600 284 631 380 664 c 1
 378 649 377 640 377 637 c 0
 377 633 378 629 378 629 c 1
 363 622 l 2
 348 615 310 599 300 558 c 0
 300 555 299 553 299 551 c 0
 299 542 307 537 324 537 c 0
 337.3 537 354.5 538.9 375 542 c 1
 436 578 481 594 510 594 c 0
 543 594 560 585 560 565 c 0
 560 562 559 559 559 556 c 0
 552 528 495 516 400 511 c 1
 317 471 284 429 271 373 c 0
 268 358 266 347 266 338 c 0
 266 317 275 311 288 311 c 0
 311 311 339 322 364 331 c 0
 384 338 401 344 420 344 c 0
 448 344 460 335 460 320 c 0
 460 318 460 315 459 313 c 0
 453 284 423 271 376 271 c 0
 369 271 365 271 360 271 c 0
 358 271 356 272 354 272 c 0
 320 264.2 283.2 255.8 250 248 c 1
 219 234 195 208 184 162 c 0
 182 151 180 141 180 131 c 0
 180 92 205 65 282 65 c 0
 366 65 425 32 425 -39 c 0
 425 -49 423 -61 420 -73 c 0
 403 -151 321 -209 202 -209 c 0
 152 -209 112 -203 112 -175 c 0
 112 -172 113 -169 113 -167 c 0
 118 -146 146 -133 178 -133 c 0
 204 -133 221 -141 239 -148 c 0
 255 -155 271 -162 285 -162 c 0
 308 -162 336 -126 348 -73 c 0
EndSplineSet
EndChar

StartChar: u1D744
Encoding: 120644 120644 92
Width: 507
VWidth: 999
GlyphClass: 2
Flags: W
ItalicCorrection: 30
TopAccentHorizontal: 344
HStem: -12 43<168 322> 404 41<167 338>
VStem: 34 122<132 339> 364 121<84 352>
LayerCount: 2
Fore
SplineSet
198 173 m 0
 198 50 248 32 271 32 c 0
 368 32 393 208 393 272 c 0
 393 333 379 402 323 402 c 0
 226 402 198 260 198 173 c 0
72 165 m 0
 72 285 162 444 342 444 c 0
 480 444 517 351 517 279 c 0
 517 121 383 -10 246 -10 c 0
 103 -10 72 111 72 165 c 0
EndSplineSet
EndChar

StartChar: u1D745
Encoding: 120645 120645 93
Width: 607
GlyphClass: 2
Flags: W
ItalicCorrection: 88
TopAccentHorizontal: 413
HStem: -12 85<71.2302 141.89> -12 60<418 517.515> 357 76<192.781 242 333.364 432 524.599 617.927>
VStem: 366 96<48.788 166.81>
DStem2: 372 109 470 109 0.226998 0.973895<-27.8029 255.146>
LayerCount: 2
Fore
SplineSet
549 433 m 2
 577 433 616 435 632 459 c 1
 675 424 l 1
 638 378 590 361 531 358 c 1
 520 322 501 242 470 109 c 0
 465 86 462 69 462 59 c 0
 462 52 463 48 467 48 c 0
 476 48 504 54 567 107 c 1
 596 72 l 1
 565 41 511 -12 450 -12 c 0
 386 -12 366 21 366 63 c 0
 366 78 368 94 372 109 c 0
 385 167 403 244 432 357 c 1
 336 357 l 1
 280 117 209 -12 97 -12 c 0
 80 -12 51 -6 51 18 c 0
 51 21 52 23 52 26 c 0
 55 35 74 64 114 73 c 0
 138 79 183 106 242 357 c 1
 208 355 178 332 147 276 c 1
 89 285 l 1
 110 346 175 433 242 433 c 2
 549 433 l 2
EndSplineSet
EndChar

StartChar: u1D746
Encoding: 120646 120646 94
Width: 561
GlyphClass: 2
Flags: W
ItalicCorrection: 48
TopAccentHorizontal: 406
HStem: -11 38<236 375> 399 45<232 365>
VStem: 75 117<-156 9 79 319> 399 129<66 392>
LayerCount: 2
Fore
SplineSet
445 200 m 0
 454 238 458 269 458 295 c 0
 458 374 420 399 370 399 c 0
 330 399 279 374 246 232 c 2
 210 79 l 1
 219 42 253 26 291 26 c 0
 360 26 421 97 445 200 c 0
136 -204 m 1
 14 -248 l 1
 2 -218 l 1
 22 -187 46 -128 74 -3 c 1
 118 186 l 2
 149 319 191 356 226 386 c 1
 279 428 351 445 405 445 c 0
 519 445 589 380 589 288 c 0
 589 273 587 258 584 242 c 0
 548 88 413 -11 268 -11 c 0
 237 -11 212 -7 192 -1 c 1
 189 -12 187 -24 185 -36 c 0
 182 -52 177 -72 173 -87 c 0
 163 -134 150 -177 136 -204 c 1
EndSplineSet
EndChar

StartChar: u1D747
Encoding: 120647 120647 95
Width: 479
GlyphClass: 2
Flags: W
ItalicCorrection: 77
TopAccentHorizontal: 395
HStem: -222 48<233 317> -12 83<135 316> 375 70<157 299>
VStem: 28 91<75 306> 375 77<-129 -23>
LayerCount: 2
Fore
SplineSet
74 199 m 0
 99 306 225 445 396 445 c 0
 501 445 536 410 536 382 c 0
 536 379 535 377 535 375 c 0
 528 347 500 330 458 330 c 0
 431 330 413 340 400 355 c 1
 390 370 374 375 344 375 c 0
 267 375 185 286 170 220 c 0
 166 201 163 183 163 168 c 0
 163 96 213 71 321 71 c 0
 368 71 396 58 411 38 c 0
 431 12 438 -12 438 -38 c 0
 438 -50 437 -64 433 -78 c 0
 424 -117 391 -151 345 -179 c 1
 293 -209 247 -222 182 -222 c 0
 92 -222 72 -193 72 -169 c 0
 72 -165 72 -161 73 -158 c 0
 80 -128 113 -112 140 -112 c 0
 181 -112 198 -123 204 -150 c 0
 206 -160 211 -174 235 -174 c 0
 287 -174 340 -149 356 -80 c 0
 357 -75 358 -70 358 -66 c 0
 358 -24 303 -16 217 -12 c 0
 115 -8 68 70 68 151 c 0
 68 167 70 184 74 199 c 0
EndSplineSet
EndChar

StartChar: u1D748
Encoding: 120648 120648 96
Width: 594
GlyphClass: 2
Flags: W
ItalicCorrection: 98
TopAccentHorizontal: 419
HStem: -12 38<172 353> 359 75<181 347 398 471>
VStem: 38 113<104 281> 384 113<109 249>
LayerCount: 2
Fore
SplineSet
292 26 m 0
 344 26 406 96 427 187 c 0
 432 208 437 230 437 254 c 0
 437 283 430 313 408 343 c 1
 417 348 431 357 430 359 c 1
 390 359 l 2
 278 359 216 282 195 189 c 0
 192 178 191 165 191 151 c 0
 191 92 220 26 292 26 c 0
193 369 m 1
 238 404 311 435 412 435 c 2
 542 435 l 2
 571 435 610 445 638 465 c 1
 672 436 l 1
 632 385 579 359 507 359 c 2
 481 359 l 1
 521 332 546 289 546 233 c 0
 546 217 544 201 540 184 c 0
 527 126 451 -12 277 -12 c 0
 150 -12 79 53 79 151 c 0
 79 168 81 187 85 205 c 0
 99 264 139 324 193 369 c 1
EndSplineSet
EndChar

StartChar: u1D749
Encoding: 120649 120649 97
Width: 463
GlyphClass: 2
Flags: W
ItalicCorrection: 89
TopAccentHorizontal: 331
HStem: -12 10G<238 301> 357 75<111 185 285 345>
VStem: 164 106<50 197>
LayerCount: 2
Fore
SplineSet
241 432 m 2
 406 432 l 2
 435 432 473 435 490 459 c 1
 532 424 l 1
 492 373 441 357 371 357 c 2
 368 357 l 1
 333 250 308 162 295 109 c 1
 290 84 287 68 287 58 c 0
 287 51 288 48 291 48 c 0
 302 48 325 54 390 107 c 1
 420 72 l 1
 375 26 327 -12 269 -12 c 0
 214 -12 185 17 185 70 c 0
 185 83 187 97 190 112 c 0
 202 164 230 252 267 357 c 1
 234 357 l 2
 203 357 189 339 149 276 c 1
 90 288 l 1
 110 342 161 432 241 432 c 2
EndSplineSet
EndChar

StartChar: u1D74A
Encoding: 120650 120650 98
Width: 530
GlyphClass: 2
Flags: W
ItalicCorrection: 58
TopAccentHorizontal: 364
HStem: -12 54<207 394> 386 59<99 161>
VStem: 86 114<86 253> 418 80<115 356>
LayerCount: 2
Fore
SplineSet
556 250 m 0
 516 75 396 -12 295 -12 c 0
 164 -12 120 47 120 121 c 0
 120 139 123 157 127 175 c 0
 137 220 151 258 163 291 c 0
 172 316 181 340 186 361 c 0
 190 378 190 386 188 386 c 0
 181 386 122 370 122 370 c 1
 119 397 l 1
 146 417 217 445 264 445 c 0
 294 445 314 431 314 406 c 0
 314 402 314 398 313 394 c 0
 306 361 293 330 280 297 c 0
 267 263 252 226 240 172 c 0
 236 156 234 140 234 125 c 0
 234 79 254 42 308 42 c 0
 382 42 452 144 474 238 c 1
 480 270 484 293 484 312 c 0
 484 347 473 361 460 364 c 1
 446 366 410 372 410 397 c 0
 410 400 410 402 411 405 c 0
 416 424 440 445 482 445 c 0
 542 445 568 407 568 341 c 0
 568 315 564 285 556 250 c 0
EndSplineSet
EndChar

StartChar: u1D74B
Encoding: 120651 120651 99
Width: 604
GlyphClass: 2
Flags: W
ItalicCorrection: 47
TopAccentHorizontal: 449
HStem: -220 10G<239 361> 637 10G<269 335>
VStem: 28 118<134 293> 239 122<-220 -130> 246 109<-105 -16 23 107> 262 80<322 406 442 526> 269 66<563 647> 458 118<132 292>
LayerCount: 2
Fore
SplineSet
195 212 m 0
 189 189 187 167 187 147 c 0
 187 109 197 79 214 56 c 0
 227 40 240 29 253 23 c 1
 287 151 321 278 355 406 c 1
 335 401 313 391 286 369 c 0
 246 335 211 284 195 212 c 0
437 406 m 1
 359 22 l 1
 375 27 395 39 419 59 c 0
 458 90 491 142 507 212 c 0
 513 237 515 259 515 279 c 0
 515 317 505 347 488 370 c 0
 471 392 454 402 437 406 c 1
115 49 m 0
 86 85 71 124 71 166 c 0
 71 181 73 196 77 212 c 0
 91 274 129 328 190 376 c 0
 253 426 315 438 364 442 c 1
 382 509 401 581 418 647 c 1
 485 647 l 1
 444 441 l 1
 510 437 554 418 588 376 c 0
 617 340 631 302 631 260 c 0
 631 245 629 229 625 212 c 0
 611 151 574 97 512 49 c 1
 455 3 398 -11 351 -16 c 1
 338 -83 324 -153 311 -220 c 1
 188 -220 l 1
 243 -15 l 1
 185 -8 146 11 115 49 c 0
EndSplineSet
EndChar

StartChar: u1D74C
Encoding: 120652 120652 100
Width: 549
GlyphClass: 2
Flags: W
ItalicCorrection: 113
TopAccentHorizontal: 395
HStem: -177 57<412 455> 395 50<82 135>
LayerCount: 2
Fore
SplineSet
236 247 m 1
 226 342 218 395 191 395 c 0
 185 395 165 390 131 374 c 1
 113 403 l 1
 141 431 173 445 222 445 c 0
 304 445 330 373 343 256 c 0
 346 229 344 247 346 220 c 1
 405 295 469 374 526 447 c 1
 560 438 l 1
 582 441 623 446 642 448 c 1
 536 330 l 1
 356 131 l 1
 361 93 365 53 370 15 c 1
 382 -101 391 -120 416 -120 c 0
 425 -120 442 -112 469 -86 c 1
 500 -119 l 1
 469 -156 424 -177 391 -177 c 0
 297 -177 278 -121 264 9 c 1
 263 22 l 1
 237 -10 212 -42 187 -74 c 1
 87 -190 l 1
 24 -170 l 1
 10 -151 l 1
 23 -136 l 1
 251 112 l 1
 247 157 242 202 236 247 c 1
EndSplineSet
EndChar

StartChar: u1D74D
Encoding: 120653 120653 101
Width: 687
GlyphClass: 2
Flags: W
ItalicCorrection: 44
TopAccentHorizontal: 476
HStem: -220 10G<282 416> 381 56<102 148>
VStem: 69 110<115 264> 292 115<-74 -9> 319 67<475 538> 528 100<143 328>
LayerCount: 2
Fore
SplineSet
443 538 m 1
 510 538 l 1
 412 26 l 1
 513 52 564 159 577 212 c 0
 581 228 582 242 582 255 c 0
 582 275 579 293 576 311 c 0
 572 331 569 351 569 370 c 0
 569 379 570 390 572 399 c 0
 577 420 611 443 644 443 c 0
 696 443 711 417 711 381 c 0
 711 365 708 347 704 328 c 0
 666 166 575 18 406 -7 c 1
 392 -77 378 -151 365 -220 c 1
 231 -220 l 1
 290 -9 l 1
 149 2 107 76 107 144 c 0
 107 158 109 171 112 184 c 0
 131 266 157 305 175 332 c 0
 182 342 187 351 190 365 c 0
 192 374 192 381 189 381 c 0
 185 381 169 377 120 361 c 1
 125 396 l 1
 173 418 222 438 250 438 c 0
 295 438 312 422 312 405 c 0
 312 402 311 400 311 398 c 0
 305 373 291 347 276 320 c 0
 258 285 235 243 220 175 c 0
 218 167 217 157 217 147 c 0
 217 102 239 45 301 27 c 1
 348 196 396 369 443 538 c 1
EndSplineSet
EndChar

StartChar: u1D74E
Encoding: 120654 120654 102
Width: 736
GlyphClass: 2
Flags: W
ItalicCorrection: 37
TopAccentHorizontal: 463
HStem: -12 43<170 298 436 585>
VStem: 37 116<29 306> 307 123<216 288> 579 121<91 275>
LayerCount: 2
Fore
SplineSet
748 207 m 0
 718 79 632 -12 496 -12 c 0
 447 -12 403 4 382 52 c 1
 342 9 291 -12 229 -12 c 0
 145 -12 70 21 70 120 c 0
 70 137 73 157 78 179 c 0
 101 277 208 383 356 456 c 1
 370 423 l 1
 335 407 227 322 196 186 c 0
 188 154 185 127 185 107 c 0
 185 49 211 31 256 31 c 0
 294 31 327 65 363 133 c 1
 359 156 358 175 358 191 c 0
 358 217 361 236 364 247 c 0
 371 279 390 308 439 308 c 0
 476 308 490 293 490 271 c 0
 490 265 490 259 488 253 c 0
 483 230 465 188 432 134 c 1
 437 73 455 31 494 31 c 0
 569 31 607 120 628 214 c 0
 632 228 634 245 634 263 c 0
 634 307 619 363 561 423 c 1
 590 453 l 1
 625 435 753 366 753 247 c 0
 753 234 751 221 748 207 c 0
EndSplineSet
EndChar

StartChar: u1D74F
Encoding: 120655 120655 103
Width: 486
Flags: W
ItalicCorrection: 61
TopAccentHorizontal: 356
HStem: -11 42<162 309> 326 47<174 290> 576 41<185 329>
VStem: 27 113<76 260> 340 112<343 432>
LayerCount: 2
Fore
SplineSet
326 326 m 0
 260 326 188 232 169 141 c 0
 167 133 167 125 167 117 c 0
 167 74 188 31 227 31 c 0
 295 31 356 173 389 280 c 1
 392 276 l 1
 382 294 359 326 326 326 c 0
314 374 m 0
 354 374 387 364 410 343 c 1
 413 354 l 1
 417 376 420 405 420 434 c 0
 420 504 403 576 350 576 c 0
 313 576 302 566 296 559 c 0
 280 540 259 521 230 521 c 0
 205 521 189 531 189 547 c 0
 189 549 189 551 190 553 c 0
 197 589 272 617 354 617 c 0
 463 617 527 528 527 407 c 0
 527 381 524 355 519 327 c 0
 486 169 382 -11 217 -11 c 0
 125 -11 58 43 58 131 c 0
 58 143 59 155 62 168 c 0
 87 294 213 374 314 374 c 0
EndSplineSet
EndChar

StartChar: u1D750
Encoding: 120656 120656 104
Width: 446
GlyphClass: 2
Flags: W
ItalicCorrection: 66
TopAccentHorizontal: 326
HStem: -12 51<180 319> 203 51<150 365> 394 51<224 300>
LayerCount: 2
Fore
SplineSet
470 362 m 1
 440 362 l 1
 405 392 366 394 352 394 c 0
 331 394 304 391 267 361 c 0
 246 344 224 307 208 254 c 1
 424 254 l 1
 412 203 l 1
 197 203 l 1
 195 187 194 172 194 158 c 0
 194 87 223 39 284 39 c 0
 317 39 364 65 408 101 c 1
 434 66 l 1
 413 43 353 -12 248 -12 c 0
 125 -12 71 62 71 154 c 0
 71 173 73 192 78 212 c 0
 116 377 270 445 355 445 c 0
 417 445 463 426 492 384 c 1
 470 362 l 1
EndSplineSet
EndChar

StartChar: u1D751
Encoding: 120657 120657 105
Width: 618
GlyphClass: 2
Flags: W
ItalicCorrection: 70
TopAccentHorizontal: 443
HStem: -12 38<244 406> 232 54<81 150> 339 68<283 389> 637 44<218 318>
VStem: 80 116<482 608> 95 108<43 241> 389 112<175 335 408 577> 528 68<269 324>
LayerCount: 2
Fore
SplineSet
340 432 m 0
 358 413 402 408 483 408 c 1
 491 442 494 472 494 498 c 0
 494 598 446 637 415 637 c 0
 376 637 332 589 317 525 c 0
 315 518 314 509 314 501 c 0
 314 475 324 448 340 432 c 0
590 269 m 1
 593 284 595 295 595 304 c 0
 595 322 589 331 579 335 c 1
 533 144 449 -12 273 -12 c 0
 195 -12 123 18 123 101 c 0
 123 113 125 127 128 142 c 0
 137 182 143 207 143 220 c 0
 143 229 140 232 135 232 c 0
 131 232 88 218 88 218 c 1
 85 247 l 1
 108 255 l 1
 106 255 l 1
 129 266 172 287 217 287 c 0
 245 287 254 271 254 245 c 0
 254 222 247 189 238 151 c 0
 234 136 233 123 233 111 c 0
 233 54 266 26 292 26 c 0
 384 26 438 213 467 339 c 1
 295 344 202 398 202 504 c 0
 202 520 204 537 208 555 c 0
 223 620 310 681 398 681 c 0
 544 681 603 583 603 476 c 0
 603 453 601 430 596 407 c 1
 623 405 641 399 651 390 c 1
 652 391 l 1
 663 381 668 365 668 342 c 0
 668 322 665 298 658 269 c 1
 590 269 l 1
EndSplineSet
EndChar

StartChar: u1D752
Encoding: 120658 120658 106
Width: 532
GlyphClass: 2
Flags: W
ItalicCorrection: 53
TopAccentHorizontal: 357
HStem: -12 10G<366 420>
VStem: 146 77<209 325> 310 77<74 195>
LayerCount: 2
Fore
SplineSet
209 274 m 0
 213 292 215 306 215 315 c 0
 215 326 212 331 207 331 c 0
 191 331 167 317 133 289 c 2
 112 272 l 1
 98 289 l 1
 83 308 l 2
 83 307 82 306 82 306 c 1
 81 308 l 1
 82 310 l 1
 83 308 l 1
 134 372 183 411 230 411 c 0
 274 411 294 386 294 338 c 0
 294 320 292 299 286 274 c 0
 281 253 273 226 261 194 c 1
 278 210 297 228 319 249 c 0
 378 306 417 351 428 375 c 0
 439 400 467 411 508 411 c 0
 546 411 565 400 565 379 c 0
 565 375 564 372 563 369 c 0
 558 345 523 314 458 275 c 1
 468 278 l 1
 442 216 425 165 416 125 c 0
 411 106 409 93 409 83 c 0
 409 73 412 68 417 68 c 0
 433 68 457 82 491 110 c 1
 513 127 l 1
 526 110 l 1
 541 91 l 1
 490 26 440 -12 394 -12 c 0
 350 -12 330 13 330 61 c 0
 330 79 333 100 338 125 c 1
 343 144 350 168 360 197 c 1
 343 182 325 165 304 145 c 0
 245 88 207 43 195 20 c 1
 184 -6 156 -17 115 -17 c 0
 77 -17 58 -6 58 15 c 0
 58 19 59 22 60 25 c 0
 65 50 99 79 159 115 c 1
 150 112 l 1
 178 175 199 229 209 274 c 0
541 91 m 2
 542 91 542 92 543 93 c 1
 543 91 l 1
 542 89 l 1
 541 91 l 2
EndSplineSet
EndChar

StartChar: u1D753
Encoding: 120659 120659 107
Width: 646
GlyphClass: 2
Flags: W
ItalicCorrection: 49
TopAccentHorizontal: 431
HStem: 410 35<382 476>
VStem: 41 123<99 378> 271 101<-199 -8 30 351> 492 123<109 372>
LayerCount: 2
Fore
SplineSet
543 224 m 0
 554 270 559 305 559 333 c 0
 559 388 540 410 509 410 c 0
 484 410 455 358 430 248 c 2
 379 30 l 1
 458 53 523 135 543 224 c 0
238 -237 m 1
 225 -203 l 1
 270 -8 l 1
 148 5 86 66 86 164 c 0
 86 184 88 206 94 229 c 0
 120 343 258 419 319 446 c 1
 340 414 l 1
 300 387 243 343 214 220 c 0
 208 192 204 166 204 141 c 0
 204 84 225 41 278 27 c 1
 332 261 l 2
 348 331 365 372 418 416 c 0
 446 438 484 445 517 445 c 0
 623 445 675 372 675 288 c 0
 675 271 673 255 669 239 c 0
 628 60 456 5 371 -7 c 1
 327 -199 l 1
 238 -237 l 1
EndSplineSet
EndChar

StartChar: u1D754
Encoding: 120660 120660 108
Width: 488
GlyphClass: 2
Flags: W
ItalicCorrection: 51
TopAccentHorizontal: 336
HStem: -194 76<124 353> -12 42<184 291> 401 43<186 338>
VStem: 27 111<18 400> 346 116<34 307>
LayerCount: 2
Fore
SplineSet
242 29 m 0
 285 29 364 75 396 215 c 0
 400 235 403 260 403 284 c 0
 403 343 386 401 331 401 c 0
 291 401 220 354 185 201 c 0
 177 169 174 143 174 122 c 0
 174 48 211 29 242 29 c 0
511 210 m 0
 479 75 374 -12 234 -12 c 0
 185 -12 146 1 117 26 c 1
 116 13 115 1 115 -9 c 0
 115 -87 146 -119 248 -119 c 0
 354 -119 368 -180 368 -221 c 0
 368 -224 368 -227 367 -229 c 1
 304 -249 l 1
 300 -228 288 -194 221 -194 c 0
 91 -194 36 -153 36 -35 c 0
 36 17 46 82 64 164 c 1
 113 373 230 445 337 445 c 0
 455 445 519 377 519 276 c 0
 519 255 516 233 511 210 c 0
EndSplineSet
EndChar

StartChar: u1D755
Encoding: 120661 120661 109
Width: 730
GlyphClass: 2
Flags: W
ItalicCorrection: 112
TopAccentHorizontal: 451
HStem: -18 43<202 323 439 559> 352 75<228 534 617 724>
VStem: 76 116<100 258> 320 121<173 290> 331 101<37 161> 571 122<102 257>
LayerCount: 2
Fore
SplineSet
615 352 m 1
 309 352 l 1
 277 314 253 270 242 218 c 1
 231 171 226 133 226 103 c 0
 226 51 242 25 276 25 c 0
 316 25 343 53 357 113 c 0
 360 126 362 141 363 157 c 0
 366 184 368 208 373 228 c 0
 384 276 409 302 451 302 c 0
 483 302 498 287 498 258 c 0
 498 249 497 239 494 228 c 0
 490 208 481 184 471 157 c 0
 465 143 461 128 458 113 c 0
 454 98 453 85 453 74 c 0
 453 41 467 25 498 25 c 0
 550 25 591 87 621 218 c 0
 626 238 629 259 629 280 c 0
 629 304 625 328 615 352 c 1
732 171 m 0
 720 118 692 72 647 34 c 0
 605 -1 553 -18 486 -18 c 0
 438 -18 406 5 391 40 c 1
 358 4 315 -18 267 -18 c 0
 202 -18 157 -1 134 34 c 0
 117 59 109 87 109 119 c 0
 109 135 111 152 115 171 c 0
 131 238 167 297 227 352 c 1
 211 352 198 348 188 340 c 0
 183 337 170 319 148 284 c 1
 136 274 l 1
 81 274 l 1
 83 281 l 1
 92 305 109 336 131 372 c 1
 155 409 189 427 234 427 c 2
 822 427 l 1
 805 352 l 1
 698 352 l 1
 725 312 738 271 738 226 c 0
 738 208 736 190 732 171 c 0
EndSplineSet
EndChar
